<svg width="55" height="76" viewBox="0 0 55 76" fill="none" xmlns="http://www.w3.org/2000/svg">
<g clip-path="url(#clip0_239_1831)">
<path d="M44.6918 24.5887L41.3131 24.5709L41.3193 20.7689L54.5 7.78815L46.7987 0.201172L32.8127 13.9685C31.2626 15.4944 30.4092 17.5204 30.4092 19.6781V27.2349C30.4092 31.6927 34.0907 35.3166 38.6012 35.3166L41.9917 35.3344L41.998 44.8639L33.2916 36.2936L27.1586 42.3307V39.035C27.1586 35.7092 25.2214 32.8486 22.0912 31.5734C21.0798 31.1562 20.0149 30.9479 18.9311 30.9479C16.7573 30.9479 14.7053 31.7941 13.1489 33.3261L0.5 45.7758L8.20752 53.3628L16.2603 45.4243V53.0586L6.28847 62.8745L13.996 70.4614L16.2603 68.2326V76.2012H27.1586V57.5054L33.2916 51.4683L38.874 56.9634C40.4297 58.4948 42.4824 59.3417 44.6563 59.3417C45.74 59.3417 46.8057 59.1334 47.8227 58.7161C50.9466 57.441 52.89 54.5797 52.89 51.2483V32.6718C52.89 28.214 49.2085 24.5901 44.6925 24.5901L44.6918 24.5887ZM51.0733 51.247C51.0733 53.8452 49.5593 56.0686 47.1259 57.0635C46.3331 57.3855 45.4971 57.552 44.6556 57.552C42.9725 57.552 41.3743 56.8901 40.1569 55.6986L33.2909 48.9345L27.1579 54.9716L25.3419 56.7592V74.4122H18.0763V63.9111L16.2603 65.6988L13.996 67.9276L8.85556 62.8738L16.2603 55.5848L18.0763 53.7972V41.1029L8.20752 50.8352L3.06709 45.7751L14.4317 34.5882C15.6429 33.396 17.2411 32.7348 18.9304 32.7348C19.7719 32.7348 20.6017 32.902 21.4007 33.2234C23.8349 34.2189 25.3425 36.4416 25.3425 39.0344V46.6453L27.1586 44.8577L33.2916 38.8206L43.814 49.1846L43.8078 33.5577L38.6068 33.5283C35.0888 33.5283 32.2252 30.7033 32.2252 27.2349V19.6781C32.2252 17.9973 32.8914 16.418 34.0963 15.2319L46.7987 2.72811L51.9329 7.78815L39.5033 20.0234L39.4915 26.3469L44.6925 26.377C48.2104 26.377 51.074 29.202 51.074 32.6704V51.247H51.0733Z" fill="white"/>
<path d="M44.68 29.0588H38.6194C37.5962 29.0588 36.7664 28.2421 36.7664 27.2349V19.678C36.7664 19.1895 36.9599 18.7366 37.3115 18.3906L48.0824 7.78813L46.7988 6.52466L36.0279 17.1271C35.3319 17.8068 34.9504 18.7126 34.9504 19.678V27.2349C34.9504 29.2253 36.5973 30.8464 38.6194 30.8464H44.68C45.697 30.8464 46.5329 31.6632 46.5329 32.6704V51.2469C46.5329 52.0095 46.1028 52.6413 45.3886 52.9339C44.6744 53.2257 43.9171 53.0771 43.3728 52.5406L33.2917 42.6178L27.1587 48.6549L25.3426 50.4425L22.6182 53.1243V39.035C22.6182 37.5509 21.7523 36.2696 20.3539 35.7037C18.9611 35.1315 17.4298 35.4358 16.3578 36.4841L6.91919 45.7758L8.20273 47.0393L17.6421 37.7476C18.1933 37.2111 18.9437 37.0624 19.6641 37.3543C20.3783 37.6461 20.8022 38.2779 20.8022 39.035V54.912L18.0778 57.5938L16.2618 59.3814L12.7139 62.8737L13.9975 64.1372L16.2618 61.9083L18.0778 60.1207L20.8022 57.4389V71.7304H22.6182V55.6506L25.3426 52.9688L27.1587 51.1812L33.2917 45.1441L42.0886 53.8033C43.1542 54.8524 44.6863 55.1566 46.0847 54.5838C47.4775 54.0178 48.349 52.7365 48.349 51.2463V32.6697C48.349 30.6793 46.7021 29.0581 44.68 29.0581V29.0588Z" fill="white"/>
</g>
<defs>
<clipPath id="clip0_239_1831">
<rect width="54" height="76" fill="white" transform="translate(0.5)"/>
</clipPath>
</defs>
</svg>
