<svg width="101" height="100" viewBox="0 0 101 100" fill="none" xmlns="http://www.w3.org/2000/svg">
        <path d="M50.5 93.75C38.8968 93.75 27.7688 89.1406 19.5641 80.9359C11.3594 72.7312 6.75 61.6032 6.75 50C6.75 38.3968 11.3594 27.2688 19.5641 19.0641C27.7688 10.8594 38.8968 6.25 50.5 6.25C62.1032 6.25 73.2312 10.8594 81.4359 19.0641C89.6406 27.2688 94.25 38.3968 94.25 50C94.25 61.6032 89.6406 72.7312 81.4359 80.9359C73.2312 89.1406 62.1032 93.75 50.5 93.75ZM50.5 100C63.7608 100 76.4785 94.7322 85.8553 85.3553C95.2322 75.9785 100.5 63.2608 100.5 50C100.5 36.7392 95.2322 24.0215 85.8553 14.6447C76.4785 5.26784 63.7608 0 50.5 0C37.2392 0 24.5215 5.26784 15.1447 14.6447C5.76784 24.0215 0.5 36.7392 0.5 50C0.5 63.2608 5.76784 75.9785 15.1447 85.3553C24.5215 94.7322 37.2392 100 50.5 100Z"
                fill="#007AFF" />
        <path d="M33.3438 36.1625C33.3352 36.3643 33.368 36.5658 33.4402 36.7545C33.5124 36.9432 33.6224 37.1151 33.7635 37.2597C33.9046 37.4043 34.0737 37.5185 34.2606 37.5953C34.4474 37.6721 34.648 37.7098 34.85 37.7062H40.0063C40.8688 37.7062 41.5563 37 41.6688 36.1437C42.2313 32.0438 45.0438 29.0563 50.0563 29.0563C54.3438 29.0563 58.2688 31.2 58.2688 36.3563C58.2688 40.325 55.9312 42.15 52.2375 44.925C48.0312 47.9813 44.7 51.55 44.9375 57.3438L44.9562 58.7C44.9628 59.1101 45.1303 59.5011 45.4226 59.7887C45.715 60.0764 46.1086 60.2375 46.5187 60.2375H51.5875C52.0019 60.2375 52.3993 60.0729 52.6924 59.7799C52.9854 59.4868 53.15 59.0894 53.15 58.675V58.0187C53.15 53.5312 54.8563 52.225 59.4625 48.7313C63.2688 45.8375 67.2375 42.625 67.2375 35.8813C67.2375 26.4375 59.2625 21.875 50.5312 21.875C42.6125 21.875 33.9375 25.5625 33.3438 36.1625ZM43.075 72.1813C43.075 75.5125 45.7313 77.975 49.3875 77.975C53.1938 77.975 55.8125 75.5125 55.8125 72.1813C55.8125 68.7313 53.1875 66.3063 49.3813 66.3063C45.7313 66.3063 43.075 68.7313 43.075 72.1813Z"
                fill="#007AFF" />
</svg>