<svg width="24" height="15" viewBox="0 0 24 15" fill="none" xmlns="http://www.w3.org/2000/svg">
<g clip-path="url(#clip0_2_1331)">
<path d="M12.0253 11.6995C12.0253 11.6995 13.3024 11.5878 13.3024 13.0989L14.5795 11.6995C14.5795 11.6995 13.3024 11.831 13.3024 10.2999L12.0253 11.6995Z" fill="white"/>
<path d="M0.526855 5.73809V0.87814C0.526855 0.67821 0.674329 0.516602 0.856771 0.516602H2.75113C2.93357 0.516602 3.08104 0.67821 3.08104 0.87814V5.7081C3.08104 5.9247 2.9214 6.09963 2.72375 6.09963H0.856771C0.674329 6.09963 0.526855 5.93802 0.526855 5.73809Z" fill="white"/>
<path d="M8.19104 3.29389V0.516541H10.7452V3.31555H8.2108C8.20015 3.31555 8.19104 3.30556 8.19104 3.29389Z" fill="white"/>
<path d="M5.63525 3.29243V0.831631C5.63525 0.656693 5.76448 0.515076 5.92411 0.515076H8.18943V3.31409H5.65501C5.64437 3.31409 5.63525 3.30409 5.63525 3.29243Z" fill="white"/>
<path d="M13.3007 0.909918V2.9442C13.3007 3.14912 13.1487 3.31574 12.9617 3.31574H10.7466V0.516724H12.9419C13.1396 0.516724 13.3007 0.693328 13.3007 0.909918Z" fill="white"/>
<path d="M0.526855 11.6993V14.4983H3.08104V11.6993H0.526855Z" fill="white"/>
<path d="M15.823 2.91421V0.866598C15.823 0.663336 15.9735 0.500061 16.1575 0.500061H17.1777C17.8405 0.500061 18.3788 1.08985 18.3788 1.81627V3.30074H16.1757C15.9812 3.30074 15.8246 3.12747 15.8246 2.91587L15.823 2.91421Z" fill="white"/>
<path d="M15.8232 14.4983V11.6993H18.3773V13.1421C18.3773 13.8919 17.8224 14.5 17.1383 14.5H15.8217L15.8232 14.4983Z" fill="white"/>
<path d="M13.2673 5.71311V3.68548C13.2673 3.47223 13.4254 3.29895 13.6201 3.29895H15.4703C15.6649 3.29895 15.823 3.47223 15.823 3.68548V5.68311C15.823 5.91303 15.6528 6.09963 15.4429 6.09963H13.6201C13.4254 6.09963 13.2673 5.92635 13.2673 5.71311Z" fill="white"/>
<path d="M5.63531 5.73642V3.29895H8.1895V6.06798C8.1895 6.08464 8.17733 6.09963 8.16061 6.09963H5.96523C5.78279 6.09963 5.63379 5.93802 5.63379 5.73642H5.63531Z" fill="white"/>
<path d="M8.19104 14.4768V11.6778H10.4062C10.5931 11.6778 10.7452 11.8444 10.7452 12.0494V14.092C10.7452 14.3052 10.5871 14.4768 10.394 14.4768H8.19104Z" fill="white"/>
<path d="M5.99541 11.6828H8.19079V14.4817H6.02429C5.80992 14.4817 5.6366 14.2918 5.6366 14.0569V12.076C5.6366 11.8594 5.79775 11.6828 5.99541 11.6828Z" fill="white"/>
<path d="M13.3022 14.0418V11.7626C13.3022 11.7277 13.3282 11.6976 13.3615 11.6976H15.7987C15.8306 11.6976 15.858 11.726 15.858 11.7626V14.4333C15.858 14.4684 15.8322 14.4983 15.7987 14.4983H13.7189C13.4893 14.4983 13.3022 14.2934 13.3022 14.0418Z" fill="white"/>
<path d="M17.1001 0.5V3.29902C19.2164 3.29902 20.9329 5.18002 20.9329 7.4992C20.9329 9.81838 19.2164 11.6994 17.1001 11.6994V14.4984C20.6273 14.4984 23.4872 11.3645 23.4872 7.4992C23.4872 3.63389 20.6273 0.5 17.1001 0.5Z" fill="white"/>
<path d="M0.526788 11.6911V9.29363C0.526788 9.07538 0.689466 8.89709 0.888632 8.89709H2.68873C2.90461 8.89709 3.08097 9.09037 3.08097 9.32695V11.6911C3.08097 11.6911 3.07793 11.6977 3.07489 11.6977H0.531349C0.531349 11.6977 0.525269 11.6944 0.525269 11.6911H0.526788Z" fill="white"/>
<path d="M3.08093 6.46121V8.53715C3.08093 8.73682 3.22864 8.89869 3.41085 8.89869H5.3052C5.48741 8.89869 5.63511 8.73682 5.63511 8.53715V6.46121C5.63511 6.26154 5.48741 6.09967 5.3052 6.09967H3.41085C3.22864 6.09967 3.08093 6.26154 3.08093 6.46121Z" fill="white"/>
<path d="M3.08092 7.49915C3.08092 7.49915 3.18279 8.89865 1.80383 8.89865L3.08092 10.2982C3.08092 10.2982 2.96082 8.89865 4.35802 8.89865L3.08092 7.49915Z" fill="white"/>
<path d="M8.19262 1.91626C8.19262 1.91626 8.29448 3.31576 6.91553 3.31576L8.19262 4.71527C8.19262 4.71527 8.07251 3.31576 9.46971 3.31576L8.19262 1.91626Z" fill="white"/>
<path d="M10.7465 10.2982C10.7465 10.2982 10.8484 11.6977 9.46948 11.6977L10.7465 13.0972C10.7465 13.0972 10.6264 11.6977 12.0237 11.6977L10.7465 10.2982Z" fill="white"/>
<path d="M15.8229 1.91626C15.8229 1.91626 15.9248 3.31576 14.5458 3.31576L15.8229 4.71527C15.8229 4.71527 15.7028 3.31576 17.1 3.31576L15.8229 1.91626Z" fill="white"/>
<path d="M13.3024 1.91626C13.3024 1.91626 13.2005 3.31576 14.5795 3.31576L13.3024 4.71527C13.3024 4.71527 13.4225 3.31576 12.0253 3.31576L13.3024 1.91626Z" fill="white"/>
<path d="M8.19079 4.70032C8.19079 4.70032 8.08893 6.09983 9.46789 6.09983L8.19079 7.49933C8.19079 7.49933 8.3109 6.09983 6.9137 6.09983L8.19079 4.70032Z" fill="white"/>
<path d="M3.08092 4.70032C3.08092 4.70032 2.97907 6.09983 4.35802 6.09983L3.08092 7.49933C3.08092 7.49933 3.20103 6.09983 1.80383 6.09983L3.08092 4.70032Z" fill="white"/>
<path d="M10.7451 11.1713V9.99336C10.7451 9.38857 11.1921 8.89874 11.744 8.89874H13.2993V11.6977H11.2256C10.9595 11.6977 10.7451 11.4612 10.7451 11.1713Z" fill="white"/>
<path d="M8.19104 6.47454V8.52382C8.19104 8.73085 8.34419 8.89869 8.53312 8.89869H10.4031C10.592 8.89869 10.7452 8.73085 10.7452 8.52382V6.47454C10.7452 6.26751 10.592 6.09967 10.4031 6.09967H8.53312C8.34419 6.09967 8.19104 6.26751 8.19104 6.47454Z" fill="white"/>
<path d="M10.7453 7.49915C10.7453 7.49915 10.6434 8.89865 12.0223 8.89865L10.7453 10.2982C10.7453 10.2982 10.8653 8.89865 9.46814 8.89865L10.7453 7.49915Z" fill="white"/>
<path d="M13.3022 11.6978V8.8988H15.8261C15.8428 8.8988 15.8565 8.9138 15.8565 8.93212V11.6978H13.3022Z" fill="#0090FF"/>
<path d="M15.8579 6.48953V8.50883C15.8579 8.72414 16.0172 8.89869 16.2136 8.89869H18.0563C18.2528 8.89869 18.4121 8.72414 18.4121 8.50883V6.48953C18.4121 6.27422 18.2528 6.09967 18.0563 6.09967H16.2136C16.0172 6.09967 15.8579 6.27422 15.8579 6.48953Z" fill="#0090FF"/>
<path d="M15.8565 7.49915C15.8565 7.49915 15.9584 8.89865 14.5793 8.89865L15.8565 10.2982C15.8565 10.2982 15.7364 8.89865 17.1336 8.89865L15.8565 7.49915Z" fill="#0090FF"/>
<path d="M0.525269 3.31557V0.881431C0.525269 0.679835 0.674262 0.514893 0.859745 0.514893H2.7465C2.93046 0.514893 3.08097 0.678169 3.08097 0.881431V3.31557H0.526789H0.525269Z" fill="#D83273"/>
</g>
<defs>
<clipPath id="clip0_2_1331">
<rect width="23" height="14" fill="white" transform="translate(0.5 0.5)"/>
</clipPath>
</defs>
</svg>
