<svg width="42" height="60" viewBox="0 0 42 60" fill="none" xmlns="http://www.w3.org/2000/svg">
<g clip-path="url(#clip0_197_403)">
<path d="M34.3714 19.4121L31.7435 19.398L31.7484 16.3964L42 6.14848L36.0101 0.158752L25.1321 11.0277C23.9264 12.2323 23.2627 13.8319 23.2627 15.5352V21.5012C23.2627 25.0205 26.1261 27.8814 29.6343 27.8814L32.2713 27.8955L32.2762 35.4188L25.5046 28.6528L20.7345 33.4189V30.8171C20.7345 28.1914 19.2278 25.933 16.7932 24.9263C16.0065 24.5969 15.1782 24.4325 14.3353 24.4325C12.6446 24.4325 11.0486 25.1005 9.83802 26.31L0 36.1387L5.99474 42.1285L12.258 35.8612V41.8883L4.50215 49.6377L10.4969 55.6274L12.258 53.8677V60.1588H20.7345V45.3989L25.5046 40.6328L29.8465 44.9711C31.0565 46.18 32.653 46.8486 34.3438 46.8486C35.1867 46.8486 36.0155 46.6842 36.8065 46.3548C39.2362 45.3481 40.7478 43.0892 40.7478 40.4592V25.7934C40.7478 22.2742 37.8844 19.4132 34.3719 19.4132L34.3714 19.4121ZM39.3348 40.4581C39.3348 42.5093 38.1573 44.2646 36.2646 45.05C35.6479 45.3043 34.9977 45.4357 34.3432 45.4357C33.0341 45.4357 31.7911 44.9132 30.8442 43.9725L25.504 38.6324L20.7339 43.3986L19.3214 44.8099V58.7464H13.6705V50.4561L12.258 51.8674L10.4969 53.627L6.49877 49.6371L12.258 43.8827L13.6705 42.4714V32.4496L5.99474 40.133L1.99662 36.1382L10.8358 27.3064C11.7778 26.3652 13.0208 25.8432 14.3348 25.8432C14.9893 25.8432 15.6346 25.9752 16.2561 26.2289C18.1493 27.0149 19.322 28.7696 19.322 30.8165V36.8252L20.7345 35.4139L25.5046 30.6478L33.6887 38.8299L33.6838 26.4929L29.6386 26.4696C26.9024 26.4696 24.6752 24.2394 24.6752 21.5012V15.5352C24.6752 14.2083 25.1933 12.9615 26.1304 12.0251L36.0101 2.1537L40.0034 6.14848L30.3359 15.8079L30.3267 20.8001L34.3719 20.8239C37.1081 20.8239 39.3353 23.0542 39.3353 25.7924V40.4581H39.3348Z" fill="white"/>
<path d="M34.3622 22.9411H29.6484C28.8525 22.9411 28.2072 22.2963 28.2072 21.5012V15.5352C28.2072 15.1496 28.3577 14.792 28.6311 14.5188L37.0085 6.14848L36.0102 5.151L27.6328 13.5214C27.0914 14.058 26.7947 14.7731 26.7947 15.5352V21.5012C26.7947 23.0726 28.0757 24.3524 29.6484 24.3524H34.3622C35.1532 24.3524 35.8034 24.9972 35.8034 25.7924V40.4581C35.8034 41.0601 35.4688 41.5589 34.9133 41.7898C34.3579 42.0203 33.7688 41.9029 33.3455 41.4794L25.5046 33.6456L20.7345 38.4117L19.322 39.823L17.203 41.9402V30.8171C17.203 29.6454 16.5296 28.6339 15.4419 28.1871C14.3586 27.7354 13.1676 27.9756 12.3338 28.8032L4.99268 36.1387L5.99099 37.1362L13.3327 29.8007C13.7615 29.3771 14.3451 29.2597 14.9054 29.4902C15.4609 29.7206 15.7906 30.2193 15.7906 30.8171V43.3515L13.6716 45.4687L12.2591 46.88L9.49969 49.6371L10.498 50.6346L12.2591 48.875L13.6716 47.4637L15.7906 45.3465V56.6292H17.203V43.9346L19.322 41.8174L20.7345 40.4061L25.5046 35.64L32.3466 42.4763C33.1755 43.3044 34.3671 43.5446 35.4547 43.0924C36.538 42.6456 37.2158 41.6341 37.2158 40.4575V25.7918C37.2158 24.2204 35.9349 22.9406 34.3622 22.9406V22.9411Z" fill="white"/>
<path d="M34.3714 19.4121L31.7435 19.398L31.7484 16.3964L42 6.14848L36.0101 0.158752L25.1321 11.0277C23.9264 12.2323 23.2627 13.8319 23.2627 15.5352V21.5012C23.2627 25.0205 26.1261 27.8814 29.6343 27.8814L32.2713 27.8955L32.2762 35.4188L25.5046 28.6528L20.7345 33.4189V30.8171C20.7345 28.1914 19.2278 25.933 16.7932 24.9263C16.0065 24.5969 15.1782 24.4325 14.3353 24.4325C12.6446 24.4325 11.0486 25.1005 9.83802 26.31L0 36.1387L5.99474 42.1285L12.258 35.8612V41.8883L4.50215 49.6377L10.4969 55.6274L12.258 53.8677V60.1588H20.7345V45.3989L25.5046 40.6328L29.8465 44.9711C31.0565 46.18 32.653 46.8486 34.3438 46.8486C35.1867 46.8486 36.0155 46.6842 36.8065 46.3548C39.2362 45.3481 40.7478 43.0892 40.7478 40.4592V25.7934C40.7478 22.2742 37.8844 19.4132 34.3719 19.4132L34.3714 19.4121ZM39.3348 40.4581C39.3348 42.5093 38.1573 44.2646 36.2646 45.05C35.6479 45.3043 34.9977 45.4357 34.3432 45.4357C33.0341 45.4357 31.7911 44.9132 30.8442 43.9725L25.504 38.6324L20.7339 43.3986L19.3214 44.8099V58.7464H13.6705V50.4561L12.258 51.8674L10.4969 53.627L6.49877 49.6371L12.258 43.8827L13.6705 42.4714V32.4496L5.99474 40.133L1.99662 36.1382L10.8358 27.3064C11.7778 26.3652 13.0208 25.8432 14.3348 25.8432C14.9893 25.8432 15.6346 25.9752 16.2561 26.2289C18.1493 27.0149 19.322 28.7696 19.322 30.8165V36.8252L20.7345 35.4139L25.5046 30.6478L33.6887 38.8299L33.6838 26.4929L29.6386 26.4696C26.9024 26.4696 24.6752 24.2394 24.6752 21.5012V15.5352C24.6752 14.2083 25.1933 12.9615 26.1304 12.0251L36.0101 2.1537L40.0034 6.14848L30.3359 15.8079L30.3267 20.8001L34.3719 20.8239C37.1081 20.8239 39.3353 23.0542 39.3353 25.7924V40.4581H39.3348Z" fill="url(#paint0_linear_197_403)"/>
<path d="M34.3622 22.9411H29.6484C28.8525 22.9411 28.2072 22.2963 28.2072 21.5012V15.5352C28.2072 15.1496 28.3577 14.792 28.6311 14.5188L37.0085 6.14848L36.0102 5.151L27.6328 13.5214C27.0914 14.058 26.7947 14.7731 26.7947 15.5352V21.5012C26.7947 23.0726 28.0757 24.3524 29.6484 24.3524H34.3622C35.1532 24.3524 35.8034 24.9972 35.8034 25.7924V40.4581C35.8034 41.0601 35.4688 41.5589 34.9133 41.7898C34.3579 42.0203 33.7688 41.9029 33.3455 41.4794L25.5046 33.6456L20.7345 38.4117L19.322 39.823L17.203 41.9402V30.8171C17.203 29.6454 16.5296 28.6339 15.4419 28.1871C14.3586 27.7354 13.1676 27.9756 12.3338 28.8032L4.99268 36.1387L5.99099 37.1362L13.3327 29.8007C13.7615 29.3771 14.3451 29.2597 14.9054 29.4902C15.4609 29.7206 15.7906 30.2193 15.7906 30.8171V43.3515L13.6716 45.4687L12.2591 46.88L9.49969 49.6371L10.498 50.6346L12.2591 48.875L13.6716 47.4637L15.7906 45.3465V56.6292H17.203V43.9346L19.322 41.8174L20.7345 40.4061L25.5046 35.64L32.3466 42.4763C33.1755 43.3044 34.3671 43.5446 35.4547 43.0924C36.538 42.6456 37.2158 41.6341 37.2158 40.4575V25.7918C37.2158 24.2204 35.9349 22.9406 34.3622 22.9406V22.9411Z" fill="url(#paint1_linear_197_403)"/>
<path d="M34.3714 19.4121L31.7435 19.398L31.7484 16.3964L42 6.14848L36.0101 0.158752L25.1321 11.0277C23.9264 12.2323 23.2627 13.8319 23.2627 15.5352V21.5012C23.2627 25.0205 26.1261 27.8814 29.6343 27.8814L32.2713 27.8955L32.2762 35.4188L25.5046 28.6528L20.7345 33.4189V30.8171C20.7345 28.1914 19.2278 25.933 16.7932 24.9263C16.0065 24.5969 15.1782 24.4325 14.3353 24.4325C12.6446 24.4325 11.0486 25.1005 9.83802 26.31L0 36.1387L5.99474 42.1285L12.258 35.8612V41.8883L4.50215 49.6377L10.4969 55.6274L12.258 53.8677V60.1588H20.7345V45.3989L25.5046 40.6328L29.8465 44.9711C31.0565 46.18 32.653 46.8486 34.3438 46.8486C35.1867 46.8486 36.0155 46.6842 36.8065 46.3548C39.2362 45.3481 40.7478 43.0892 40.7478 40.4592V25.7934C40.7478 22.2742 37.8844 19.4132 34.3719 19.4132L34.3714 19.4121ZM39.3348 40.4581C39.3348 42.5093 38.1573 44.2646 36.2646 45.05C35.6479 45.3043 34.9977 45.4357 34.3432 45.4357C33.0341 45.4357 31.7911 44.9132 30.8442 43.9725L25.504 38.6324L20.7339 43.3986L19.3214 44.8099V58.7464H13.6705V50.4561L12.258 51.8674L10.4969 53.627L6.49877 49.6371L12.258 43.8827L13.6705 42.4714V32.4496L5.99474 40.133L1.99662 36.1382L10.8358 27.3064C11.7778 26.3652 13.0208 25.8432 14.3348 25.8432C14.9893 25.8432 15.6346 25.9752 16.2561 26.2289C18.1493 27.0149 19.322 28.7696 19.322 30.8165V36.8252L20.7345 35.4139L25.5046 30.6478L33.6887 38.8299L33.6838 26.4929L29.6386 26.4696C26.9024 26.4696 24.6752 24.2394 24.6752 21.5012V15.5352C24.6752 14.2083 25.1933 12.9615 26.1304 12.0251L36.0101 2.1537L40.0034 6.14848L30.3359 15.8079L30.3267 20.8001L34.3719 20.8239C37.1081 20.8239 39.3353 23.0542 39.3353 25.7924V40.4581H39.3348Z" fill="url(#paint2_linear_197_403)"/>
<path d="M34.3622 22.9411H29.6484C28.8525 22.9411 28.2072 22.2963 28.2072 21.5012V15.5352C28.2072 15.1496 28.3577 14.792 28.6311 14.5188L37.0085 6.14848L36.0102 5.151L27.6328 13.5214C27.0914 14.058 26.7947 14.7731 26.7947 15.5352V21.5012C26.7947 23.0726 28.0757 24.3524 29.6484 24.3524H34.3622C35.1532 24.3524 35.8034 24.9972 35.8034 25.7924V40.4581C35.8034 41.0601 35.4688 41.5589 34.9133 41.7898C34.3579 42.0203 33.7688 41.9029 33.3455 41.4794L25.5046 33.6456L20.7345 38.4117L19.322 39.823L17.203 41.9402V30.8171C17.203 29.6454 16.5296 28.6339 15.4419 28.1871C14.3586 27.7354 13.1676 27.9756 12.3338 28.8032L4.99268 36.1387L5.99099 37.1362L13.3327 29.8007C13.7615 29.3771 14.3451 29.2597 14.9054 29.4902C15.4609 29.7206 15.7906 30.2193 15.7906 30.8171V43.3515L13.6716 45.4687L12.2591 46.88L9.49969 49.6371L10.498 50.6346L12.2591 48.875L13.6716 47.4637L15.7906 45.3465V56.6292H17.203V43.9346L19.322 41.8174L20.7345 40.4061L25.5046 35.64L32.3466 42.4763C33.1755 43.3044 34.3671 43.5446 35.4547 43.0924C36.538 42.6456 37.2158 41.6341 37.2158 40.4575V25.7918C37.2158 24.2204 35.9349 22.9406 34.3622 22.9406V22.9411Z" fill="url(#paint3_linear_197_403)"/>
</g>
<defs>
<linearGradient id="paint0_linear_197_403" x1="47.9449" y1="12.0836" x2="6.07856" y2="53.9845" gradientUnits="userSpaceOnUse">
<stop stop-color="#96999B"/>
<stop offset="0.76" stop-color="#231F20"/>
</linearGradient>
<linearGradient id="paint1_linear_197_403" x1="45.4427" y1="14.5756" x2="9.60174" y2="50.4472" gradientUnits="userSpaceOnUse">
<stop stop-color="#96999B"/>
<stop offset="0.76" stop-color="#231F20"/>
</linearGradient>
<linearGradient id="paint2_linear_197_403" x1="47.9449" y1="12.0836" x2="6.07856" y2="53.9845" gradientUnits="userSpaceOnUse">
<stop offset="0.12" stop-color="#F59FAF"/>
<stop offset="0.58" stop-color="#F06587"/>
<stop offset="0.64" stop-color="#EB6385"/>
<stop offset="0.7" stop-color="#DF5F81"/>
<stop offset="0.76" stop-color="#CA597B"/>
<stop offset="0.82" stop-color="#AD5072"/>
<stop offset="0.89" stop-color="#884566"/>
<stop offset="0.95" stop-color="#5A3758"/>
<stop offset="1" stop-color="#2D2A4A"/>
</linearGradient>
<linearGradient id="paint3_linear_197_403" x1="45.4427" y1="14.5756" x2="9.60174" y2="50.4472" gradientUnits="userSpaceOnUse">
<stop offset="0.12" stop-color="#F59FAF"/>
<stop offset="0.58" stop-color="#F06587"/>
<stop offset="0.64" stop-color="#EB6385"/>
<stop offset="0.7" stop-color="#DF5F81"/>
<stop offset="0.76" stop-color="#CA597B"/>
<stop offset="0.82" stop-color="#AD5072"/>
<stop offset="0.89" stop-color="#884566"/>
<stop offset="0.95" stop-color="#5A3758"/>
<stop offset="1" stop-color="#2D2A4A"/>
</linearGradient>
<clipPath id="clip0_197_403">
<rect width="42" height="60" fill="white"/>
</clipPath>
</defs>
</svg>
