<svg width="15" height="23" viewBox="0 0 15 23" fill="none" xmlns="http://www.w3.org/2000/svg">
<g clip-path="url(#clip0_2_1362)">
<path d="M1.59523 19.2478C1.55572 19.0511 1.51622 18.863 1.48094 18.6739C1.46827 18.6067 1.52491 18.5163 1.59473 18.4877C1.78456 18.4103 1.96644 18.3135 2.17241 18.2755C2.25987 18.2594 2.34112 18.2134 2.42783 18.1919C2.52473 18.168 2.62412 18.1495 2.72351 18.1407C2.93097 18.1227 3.13944 18.1125 3.3474 18.1003C3.36479 18.0993 3.38243 18.1076 3.41424 18.1147C3.40157 18.0077 3.39088 17.908 3.37771 17.8088C3.36181 17.6902 3.33622 17.5725 3.32777 17.4536C3.3156 17.283 3.3074 17.1114 3.31187 16.9406C3.31659 16.7615 3.32951 16.5817 3.3551 16.4045C3.37249 16.2853 3.41399 16.1689 3.45225 16.0536C3.50517 15.8947 3.55735 15.7349 3.62444 15.5816C3.67612 15.4636 3.74792 15.3537 3.81501 15.2426C3.88334 15.1293 3.95688 15.0192 4.02745 14.9071C4.03689 14.892 4.04235 14.8744 4.05329 14.8496C3.98794 14.8281 3.92806 14.8074 3.86744 14.7889C3.76855 14.7587 3.66643 14.7372 3.57077 14.6992C3.32603 14.6017 3.0803 14.5047 2.84202 14.3936C2.62263 14.2913 2.40696 14.1792 2.199 14.0559C2.01116 13.9445 1.83723 13.811 1.65511 13.6904C1.55572 13.6246 1.44888 13.5697 1.35099 13.502C1.26701 13.444 1.19272 13.3728 1.11172 13.3107C0.999413 13.2249 0.882138 13.145 0.771571 13.057C0.68113 12.9849 0.597895 12.9042 0.5 12.817C0.566588 12.7636 0.625971 12.7151 0.6861 12.6679C0.742253 12.6238 0.798406 12.5792 0.856795 12.5377C0.902015 12.5058 0.952453 12.4807 0.997425 12.4486C1.16365 12.3301 1.32614 12.2063 1.4946 12.0913C1.65983 11.9785 1.82928 11.8713 1.99973 11.7658C2.14334 11.6771 2.28994 11.593 2.43703 11.5096C2.59008 11.4226 2.74164 11.3318 2.90066 11.2562C3.06987 11.1756 3.24727 11.1112 3.4207 11.0388C3.53673 10.9906 3.65028 10.936 3.76805 10.8929C3.85476 10.8612 3.94744 10.8451 4.03689 10.82C4.1164 10.7976 4.19392 10.7674 4.27442 10.7493C4.36287 10.7296 4.45431 10.7223 4.54326 10.704C4.56786 10.6989 4.60214 10.6775 4.60786 10.6572C4.64289 10.5342 4.66848 10.4087 4.70153 10.2851C4.73656 10.1543 4.77781 10.0251 4.81334 9.89451C4.83918 9.79972 4.85906 9.70322 4.8844 9.60794C4.90999 9.51144 4.9403 9.41592 4.9659 9.31942C4.9982 9.19806 5.02677 9.07573 5.05957 8.95462C5.09311 8.83059 5.13137 8.70777 5.16417 8.58349C5.20989 8.41023 5.25113 8.236 5.2966 8.06274C5.3289 7.9392 5.36493 7.81662 5.39897 7.69356C5.43524 7.56197 5.47227 7.43039 5.5073 7.29831C5.55177 7.1309 5.59451 6.96324 5.63774 6.79583C5.70806 6.52462 5.77713 6.25291 5.84869 5.98193C5.89664 5.80039 5.94857 5.62006 5.99826 5.43901C6.06063 5.21165 6.12349 4.98454 6.18337 4.75669C6.20797 4.66361 6.22238 4.56784 6.24698 4.47475C6.29692 4.28565 6.35108 4.09753 6.40252 3.90892C6.45494 3.71641 6.50538 3.52341 6.55805 3.3309C6.60253 3.1691 6.65123 3.00851 6.69421 2.84646C6.73645 2.68758 6.77248 2.52724 6.81422 2.36836C6.83832 2.27624 6.87062 2.18632 6.89447 2.09421C6.93671 1.93046 6.97398 1.76573 7.01597 1.60197C7.06641 1.4063 7.12033 1.21159 7.17176 1.01616C7.2463 0.733486 7.32009 0.450814 7.39513 0.168385C7.40855 0.117699 7.42669 0.0679876 7.4483 0C7.46917 0.0297293 7.48756 0.0460561 7.49352 0.0660381C7.54346 0.235154 7.59191 0.404758 7.63912 0.574605C7.70124 0.797818 7.76062 1.02176 7.82348 1.24473C7.8523 1.34659 7.89082 1.44577 7.91765 1.54788C7.9425 1.64267 7.95467 1.74038 7.97753 1.83566C8.00337 1.94386 8.03567 2.05059 8.064 2.1583C8.10127 2.29915 8.13704 2.44049 8.17431 2.58134C8.21978 2.75264 8.26873 2.92298 8.31171 3.09478C8.36315 3.3002 8.40762 3.50733 8.46005 3.71251C8.50229 3.87797 8.55223 4.04173 8.5972 4.2067C8.61906 4.28639 8.63521 4.36729 8.65807 4.44673C8.7023 4.60098 8.75174 4.75401 8.79473 4.90851C8.81933 4.99697 8.83448 5.0881 8.8566 5.17754C8.87896 5.2677 8.9043 5.35713 8.92865 5.4468C9.02058 5.78333 9.11425 6.11913 9.20395 6.45614C9.27054 6.7064 9.32918 6.95861 9.39725 7.20863C9.45614 7.42454 9.52521 7.638 9.58609 7.85342C9.63305 8.01985 9.67454 8.188 9.71827 8.35541C9.762 8.52306 9.80374 8.6912 9.84971 8.85812C9.89369 9.01822 9.94487 9.17662 9.98736 9.33696C10.0366 9.52265 10.0768 9.71053 10.126 9.89621C10.1812 10.1038 10.248 10.3088 10.2974 10.5176C10.3235 10.6285 10.3876 10.6965 10.4878 10.7311C10.5705 10.7596 10.6609 10.7662 10.7457 10.79C10.9387 10.8449 11.1325 10.8985 11.3221 10.9635C11.5065 11.0269 11.6876 11.1005 11.8672 11.1765C11.9987 11.2321 12.1254 11.2989 12.2541 11.3608C12.3247 11.3946 12.3962 11.4265 12.4653 11.4631C12.5334 11.4992 12.5987 11.5396 12.6653 11.5784C12.8276 11.6727 12.991 11.7648 13.1511 11.8627C13.2316 11.912 13.3046 11.9729 13.3824 12.0267C13.4768 12.092 13.5729 12.1549 13.6679 12.2197C13.7516 12.277 13.8346 12.335 13.9176 12.393C14.0838 12.509 14.2493 12.6262 14.4162 12.7407C14.4759 12.7817 14.4818 12.8219 14.4227 12.866C14.3638 12.9098 14.3004 12.9481 14.2401 12.9903C14.1327 13.0653 14.0274 13.1428 13.9191 13.2166C13.7953 13.301 13.6684 13.3811 13.5444 13.4654C13.4129 13.5549 13.2847 13.6487 13.1525 13.7371C12.9525 13.8709 12.7552 14.0093 12.5483 14.1317C12.3366 14.2564 12.1187 14.3724 11.8956 14.4762C11.7172 14.5593 11.5276 14.6188 11.3425 14.6878C11.1994 14.7411 11.0553 14.7913 10.9126 14.8457C10.8513 14.8691 10.8943 14.9132 10.9087 14.9356C11.0048 15.0835 11.1164 15.2224 11.2028 15.3752C11.2766 15.5058 11.3296 15.6488 11.3802 15.7904C11.4409 15.9598 11.5003 16.1311 11.539 16.3061C11.5763 16.4735 11.5882 16.6467 11.6081 16.8178C11.6203 16.9226 11.6382 17.0286 11.6334 17.1331C11.626 17.2932 11.6039 17.4531 11.583 17.6122C11.5629 17.7667 11.5365 17.9205 11.5114 18.0842C11.6203 18.0979 11.7288 18.1125 11.8377 18.1244C12.0158 18.1439 12.196 18.1551 12.3634 18.2241C12.4867 18.275 12.6109 18.3272 12.7249 18.3947C12.8196 18.451 12.9113 18.5206 12.9836 18.602C13.0648 18.6932 13.1337 18.7989 13.1896 18.9076C13.3493 19.2181 13.3886 19.5514 13.3578 19.8943C13.3456 20.0298 13.3367 20.1667 13.3081 20.299C13.2621 20.5106 13.202 20.7194 13.1453 20.9287C13.0787 21.1748 13.0082 21.4197 12.9421 21.6659C12.91 21.785 12.8939 21.9088 12.8544 22.0253C12.7823 22.2378 12.7225 22.4627 12.5647 22.6301C12.4325 22.7705 12.2655 22.8694 12.0727 22.934C11.909 22.9888 11.7445 22.973 11.5813 22.9922C11.5162 23 11.4458 22.9669 11.3778 22.9525C11.2739 22.9308 11.1705 22.9074 11.0664 22.8882C10.9708 22.8706 10.8848 22.7939 10.8714 22.7005C10.85 22.5529 10.8326 22.4047 10.8135 22.2568C10.7854 22.0404 10.7566 21.824 10.7295 21.6074C10.7176 21.5116 10.7129 21.4146 10.6987 21.3191C10.6905 21.2628 10.6754 21.2065 10.654 21.1536C10.6346 21.1056 10.6055 21.0676 10.5365 21.0966C10.5114 21.1071 10.4719 21.0783 10.4383 21.0754C10.3712 21.0693 10.3034 21.0681 10.2358 21.0654C10.2256 21.0649 10.214 21.0715 10.2055 21.0684C10.1141 21.0323 10.088 20.9892 10.0915 20.8917C10.0962 20.7674 10.1009 20.6431 10.1026 20.5188C10.1051 20.3393 10.1672 20.2908 10.3479 20.3254C10.3941 20.3341 10.4438 20.3254 10.4912 20.3298C10.5402 20.3341 10.5884 20.3449 10.6368 20.3529C10.7332 20.369 10.8331 20.3743 10.9253 20.4031C11.1524 20.4738 11.2851 20.6365 11.3745 20.8495C11.4414 21.0087 11.4416 21.1744 11.465 21.3384C11.4789 21.4358 11.463 21.5435 11.5005 21.6298C11.5363 21.7119 11.5094 21.7858 11.5216 21.8623C11.535 21.9463 11.5425 22.0314 11.5507 22.1159C11.5596 22.2078 11.5944 22.2461 11.6878 22.2422C11.7683 22.2388 11.8496 22.2276 11.9276 22.2083C11.9579 22.2007 11.992 22.1657 12.0036 22.1352C12.0379 22.047 12.0628 21.9551 12.0894 21.8642C12.1239 21.7453 12.1589 21.6264 12.1892 21.5063C12.2124 21.4146 12.2265 21.3208 12.2484 21.2289C12.2561 21.1963 12.2789 21.1673 12.2881 21.1346C12.3271 20.9962 12.3642 20.8571 12.4012 20.7179C12.4474 20.5447 12.4988 20.3726 12.5366 20.1974C12.5632 20.0744 12.5719 19.9474 12.586 19.8219C12.6052 19.6506 12.5736 19.4849 12.5227 19.3219C12.479 19.1818 12.3823 19.0806 12.264 18.9988C12.033 18.8389 11.7721 18.8486 11.509 18.8767C11.3832 18.8901 11.2573 18.9005 11.1325 18.9205C11.0018 18.9415 10.8719 18.9676 10.7437 18.9997C10.5722 19.0426 10.403 19.0935 10.2328 19.1406C10.1921 19.1518 10.1516 19.2156 10.1094 19.154C10.0838 19.1164 10.0708 19.068 10.0621 19.0226C10.0358 18.8859 10.0184 18.7478 9.98934 18.6115C9.96972 18.5187 9.99108 18.4536 10.08 18.4178C10.2 18.3696 10.3223 18.3272 10.443 18.2811C10.4681 18.2716 10.4915 18.2577 10.5156 18.2458C10.5176 18.2377 10.5196 18.2299 10.5216 18.2219C10.4661 18.1946 10.4125 18.1634 10.3551 18.1405C10.2212 18.0866 10.0857 18.0364 9.95108 17.9845C9.94487 17.9821 9.93965 17.9746 9.93369 17.9741C9.80822 17.9641 9.71305 17.879 9.59776 17.8432C9.50086 17.813 9.40521 17.7779 9.31129 17.7399C9.2119 17.6997 9.11599 17.6517 9.01735 17.61C8.8392 17.5349 8.65981 17.4633 8.48191 17.3878C8.30873 17.3144 8.13953 17.2313 7.96337 17.166C7.86324 17.1287 7.75342 17.1114 7.64633 17.0975C7.53998 17.0839 7.43165 17.0822 7.32407 17.0827C7.19238 17.0832 7.07014 17.1248 6.95038 17.1762C6.88478 17.2045 6.81596 17.225 6.74863 17.2494C6.74018 17.2525 6.73223 17.2569 6.72403 17.2606C6.6726 17.2832 6.62116 17.3061 6.56948 17.3283C6.52551 17.3473 6.46836 17.3393 6.44376 17.3992C6.43854 17.4119 6.38885 17.4029 6.36276 17.4119C6.30263 17.4326 6.2435 17.457 6.18511 17.4821C6.11976 17.5101 6.05591 17.5413 5.99056 17.5693C5.84397 17.6324 5.69787 17.6965 5.54979 17.7562C5.4176 17.8098 5.28343 17.8583 5.15026 17.909C4.94726 17.9862 4.74377 18.0623 4.54152 18.1412C4.4307 18.1844 4.32213 18.2326 4.2128 18.2792C4.1728 18.2962 4.16385 18.3498 4.19839 18.3766C4.25976 18.4241 4.32883 18.4631 4.38524 18.5158C4.45307 18.5791 4.51593 18.6491 4.57183 18.7227C4.72961 18.93 4.81085 19.1684 4.82899 19.4237C4.8434 19.6243 4.84067 19.8263 4.84142 20.0278C4.84291 20.4989 4.83222 20.9699 4.84589 21.4407C4.8521 21.6578 4.83123 21.8674 4.76563 22.0709C4.72538 22.1956 4.67619 22.3277 4.59395 22.4269C4.4968 22.5439 4.37952 22.6547 4.23516 22.7222C4.08931 22.7905 3.94197 22.8572 3.79041 22.9118C3.69972 22.9445 3.59984 22.9525 3.50368 22.9701C3.47039 22.9761 3.4361 22.9771 3.40231 22.9813C3.15608 23.0103 2.90861 23.0056 2.66537 22.9671C2.47852 22.9376 2.29168 22.8906 2.11427 22.8263C1.93016 22.7593 1.75673 22.6635 1.58007 22.5772C1.52119 22.5485 1.46056 22.518 1.41261 22.4754C1.37758 22.4442 1.35298 22.3942 1.34006 22.3482C1.32515 22.296 1.3254 22.239 1.32391 22.1839C1.31819 21.9778 1.30875 21.7716 1.31124 21.5657C1.31372 21.3581 1.32391 21.1502 1.33906 20.9429C1.35248 20.7584 1.431 20.5966 1.55125 20.456C1.65511 20.3346 1.7863 20.2545 1.93786 20.195C2.11129 20.127 2.28571 20.0965 2.47156 20.1012C2.71729 20.1073 2.96327 20.1039 3.20925 20.1012C3.26143 20.1007 3.28181 20.1192 3.28181 20.1682C3.28131 20.3792 3.28081 20.5905 3.2823 20.8015C3.2828 20.8527 3.25249 20.8568 3.21348 20.8568C3.03856 20.8563 2.86364 20.8554 2.68872 20.8568C2.57542 20.8578 2.46187 20.8617 2.34857 20.8673C2.21689 20.8739 2.15701 20.9438 2.13042 21.0688C2.07328 21.3384 2.11899 21.6096 2.10533 21.8796C2.10085 21.9702 2.16372 22.0307 2.24024 22.0609C2.52001 22.1715 2.80898 22.2514 3.11409 22.2439C3.30292 22.239 3.49573 22.2307 3.66966 22.1496C3.86818 22.057 4.04211 21.9368 4.04757 21.6876C4.0508 21.5467 4.05875 21.4061 4.05975 21.2652C4.06173 20.9614 4.06198 20.6575 4.05975 20.3534C4.05776 20.0734 4.05204 19.7934 4.04683 19.5134C4.0431 19.3063 3.94943 19.1401 3.7842 19.0192C3.65997 18.9283 3.51809 18.8664 3.35684 18.8628C3.26267 18.8608 3.16801 18.845 3.07483 18.8523C2.92849 18.8638 2.78165 18.8818 2.63803 18.9113C2.48424 18.9427 2.33193 18.9836 2.18285 19.0324C2.02433 19.0843 1.87053 19.1508 1.71449 19.21C1.67822 19.2237 1.6407 19.2334 1.59523 19.2478ZM7.02566 15.6927C7.02566 15.5628 7.02591 15.4332 7.02542 15.3033C7.02492 15.2063 7.012 15.1895 6.91783 15.1793C6.79683 15.1663 6.67558 15.1566 6.55408 15.1476C6.34363 15.132 6.13318 15.1179 5.92273 15.1035C5.84273 15.0981 5.76272 15.0952 5.68272 15.0893C5.50283 15.0764 5.32294 15.0567 5.1428 15.0521C5.09112 15.0506 5.0213 15.0767 4.98875 15.1142C4.86427 15.2577 4.73706 15.4022 4.63867 15.5631C4.52413 15.7502 4.43095 15.9515 4.3425 16.1528C4.23641 16.3948 4.22274 16.6567 4.20386 16.9155C4.19541 17.0308 4.19218 17.1463 4.18845 17.2615C4.18771 17.284 4.19516 17.3066 4.19889 17.329C4.22299 17.3244 4.24883 17.3237 4.27094 17.3144C4.35418 17.2793 4.43518 17.2391 4.51916 17.2055C4.58575 17.1789 4.65581 17.1614 4.72315 17.1365C4.89657 17.0719 5.07075 17.0088 5.24219 16.9389C5.37661 16.8841 5.50556 16.8166 5.63998 16.7613C5.7744 16.7062 5.91254 16.6599 6.04845 16.6087C6.18213 16.5585 6.31555 16.5081 6.44798 16.4552C6.57172 16.4057 6.69272 16.3489 6.81795 16.3031C6.95982 16.2515 7.0361 16.201 7.02715 16.0334C7.02094 15.9201 7.02566 15.8063 7.02566 15.6927ZM10.699 17.319C10.7119 17.2869 10.7206 17.2706 10.725 17.2533C10.729 17.2379 10.7285 17.2213 10.73 17.2052C10.766 16.8241 10.7014 16.4566 10.5626 16.1018C10.5136 15.9768 10.451 15.8557 10.3837 15.7388C10.2977 15.5894 10.2033 15.4446 10.1069 15.3016C10.0713 15.2485 10.0177 15.2075 9.97667 15.1576C9.91704 15.0847 9.83505 15.0496 9.74734 15.0518C9.6169 15.0552 9.48745 15.0808 9.357 15.0903C9.06655 15.1118 8.77585 15.1288 8.48514 15.1488C8.34228 15.1586 8.19891 15.1663 8.05704 15.1832C8.00138 15.1897 7.9184 15.19 7.91343 15.2648C7.90349 15.4171 7.90871 15.5701 7.9102 15.7229C7.91119 15.8311 7.92461 15.94 7.91715 16.0475C7.9097 16.1518 7.93728 16.2215 8.03343 16.2651C8.12164 16.3051 8.21009 16.3448 8.29954 16.3816C8.34178 16.3991 8.3875 16.422 8.43048 16.4199C8.468 16.4181 8.48812 16.4191 8.50427 16.453C8.5085 16.4615 8.52589 16.4647 8.53782 16.4691C8.64963 16.5103 8.76317 16.5478 8.87324 16.5929C9.03375 16.6589 9.19028 16.7352 9.35179 16.7988C9.56174 16.8814 9.77567 16.9538 9.98611 17.0349C10.132 17.091 10.2746 17.155 10.4194 17.2133C10.5099 17.2498 10.6018 17.2827 10.699 17.319ZM7.03784 6.40302C7.03784 6.40302 7.03858 6.40302 7.03908 6.40302C7.03908 6.05504 7.03908 5.7073 7.03908 5.35932C7.03908 5.28061 7.03908 5.2019 7.03411 5.12344C7.03287 5.10467 7.0125 5.08688 7.00107 5.06861C6.98616 5.08567 6.9628 5.10077 6.95734 5.12051C6.92131 5.24893 6.89025 5.37857 6.85571 5.50724C6.80478 5.69755 6.75111 5.88714 6.70067 6.0777C6.66489 6.2127 6.63433 6.34892 6.59855 6.48392C6.54961 6.66814 6.49644 6.85115 6.44798 7.03538C6.39804 7.22545 6.35158 7.4165 6.30363 7.60706C6.27282 7.72914 6.243 7.85171 6.21145 7.97356C6.16672 8.14657 6.1215 8.31958 6.07554 8.49236C6.0164 8.71508 5.95553 8.93708 5.89764 9.16005C5.84894 9.3472 5.80421 9.53532 5.75576 9.72271C5.72694 9.83408 5.69315 9.94398 5.66383 10.0553C5.63054 10.1823 5.59501 10.3088 5.56917 10.4374C5.55103 10.5276 5.57911 10.5464 5.67178 10.5259C5.68992 10.522 5.7093 10.5232 5.72818 10.5222C5.92795 10.5135 6.12771 10.5076 6.32723 10.4952C6.5183 10.4832 6.71185 10.4969 6.89969 10.4416C6.96951 10.4209 7.00877 10.3945 7.01299 10.3231C7.01796 10.2376 7.02094 10.1518 7.02169 10.0661C7.02765 9.24875 7.03386 8.43119 7.03809 7.61388C7.04007 7.21034 7.03784 6.80656 7.03784 6.40302ZM7.94498 5.0708C7.93653 5.07251 7.92833 5.07421 7.91989 5.07592C7.91989 5.10248 7.91989 5.12929 7.91989 5.15585C7.91989 6.82142 7.91989 8.48699 7.92063 10.1526C7.92063 10.224 7.9333 10.2956 7.92908 10.3668C7.92461 10.4399 7.9656 10.4523 8.02325 10.455C8.22525 10.464 8.427 10.4735 8.629 10.4828C8.63372 10.4828 8.63844 10.4828 8.64317 10.4832C8.8638 10.4962 9.08444 10.5083 9.30507 10.5225C9.36843 10.5266 9.37787 10.494 9.36495 10.445C9.34483 10.3697 9.32197 10.2954 9.30209 10.2201C9.24296 9.99539 9.18457 9.77047 9.12593 9.54556C9.10208 9.45393 9.07798 9.36255 9.05512 9.27092C9.01536 9.11058 8.97834 8.94975 8.93635 8.79014C8.90331 8.66415 8.86281 8.54012 8.82902 8.41438C8.80169 8.31252 8.78106 8.20895 8.75473 8.10685C8.74479 8.06859 8.72392 8.03301 8.71447 7.99451C8.68242 7.86414 8.65658 7.73206 8.6223 7.60218C8.57583 7.42502 8.52167 7.25006 8.47471 7.0729C8.41011 6.82922 8.35023 6.58456 8.28563 6.34088C8.24935 6.2032 8.20587 6.06747 8.16934 5.93003C8.14077 5.82232 8.11866 5.71291 8.09232 5.60447C8.06325 5.48531 8.03368 5.36615 8.00188 5.24772C7.98573 5.18801 7.96411 5.12953 7.94498 5.0708ZM7.01076 11.8564H7.00827C7.00827 11.7058 7.00827 11.555 7.00827 11.4044C7.00827 11.36 6.99659 11.3308 6.93994 11.3318C6.73869 11.3344 6.53718 11.3254 6.33642 11.3357C6.1051 11.3476 5.87354 11.369 5.64371 11.3988C5.42183 11.4273 5.20219 11.4716 4.98155 11.5084C4.90552 11.5211 4.828 11.5269 4.75321 11.544C4.61432 11.5757 4.47642 11.6115 4.33902 11.6488C4.13329 11.7043 3.92558 11.755 3.72357 11.8218C3.50667 11.8937 3.2915 11.9736 3.08279 12.066C2.93371 12.1318 2.79631 12.2229 2.65493 12.305C2.63828 12.3145 2.62984 12.3377 2.61766 12.3545C2.63828 12.3616 2.65891 12.3745 2.67978 12.375C2.87333 12.3791 3.06713 12.3835 3.26093 12.3832C4.42101 12.3815 5.58109 12.3784 6.74092 12.3757C6.80031 12.3757 6.85969 12.3784 6.91882 12.375C6.97224 12.372 7.01225 12.3523 7.0115 12.2877C7.00951 12.1439 7.01076 12.0002 7.01076 11.8564ZM12.2548 12.3884L12.2633 12.3623C12.1897 12.3201 12.1174 12.2755 12.0422 12.2368C11.9525 12.1907 11.8593 12.1513 11.7686 12.1069C11.6319 12.0399 11.4998 11.9634 11.3594 11.9054C11.2125 11.8445 11.0582 11.8004 10.9072 11.7492C10.8702 11.7368 10.8329 11.7251 10.7956 11.7131C10.7029 11.6834 10.6113 11.649 10.5171 11.6254C10.3827 11.5918 10.2463 11.5645 10.1101 11.5379C9.95779 11.5082 9.80498 11.4809 9.65168 11.4553C9.60075 11.4468 9.54807 11.4497 9.49664 11.4429C9.33017 11.4209 9.16469 11.3895 8.99772 11.3751C8.77734 11.3564 8.55595 11.351 8.33482 11.3391C8.21755 11.3327 8.10052 11.3232 7.98324 11.3183C7.92312 11.3159 7.88833 11.3413 7.89082 11.4083C7.89454 11.5087 7.89256 11.6091 7.89256 11.7097C7.89256 11.893 7.89156 12.0762 7.89305 12.2595C7.89355 12.3369 7.94821 12.3886 8.02573 12.3891C8.11592 12.3898 8.20612 12.3891 8.29606 12.3891C8.64366 12.3891 8.99102 12.3891 9.33862 12.3891C10.2487 12.3891 11.1589 12.3886 12.0692 12.3884C12.1311 12.3884 12.193 12.3884 12.2548 12.3884ZM5.72297 13.2751H2.66785C2.6758 13.2988 2.6763 13.3168 2.6845 13.3212C2.82786 13.3987 2.97048 13.4774 3.11658 13.5495C3.24975 13.6151 3.38517 13.6767 3.52257 13.7332C3.70419 13.8078 3.88806 13.877 4.07217 13.9457C4.15541 13.9767 4.24038 14.005 4.3266 14.0264C4.41157 14.0476 4.49953 14.0737 4.5855 14.0707C4.72911 14.0656 4.86104 14.0106 4.97086 13.917C5.02925 13.8673 5.07597 13.8044 5.1356 13.7564C5.23995 13.6726 5.35102 13.5968 5.45786 13.5156C5.53985 13.4533 5.6201 13.3884 5.69961 13.3229C5.71179 13.3129 5.71477 13.2924 5.72297 13.2751ZM9.19873 13.2654C9.20047 13.2863 9.1955 13.3075 9.20395 13.3158C9.2365 13.3473 9.2688 13.3887 9.3093 13.4006C9.40794 13.4301 9.45291 13.521 9.53366 13.5727C9.68498 13.6694 9.81641 13.7966 9.95704 13.9097C9.99705 13.9418 10.0465 13.964 10.0818 14.0001C10.1354 14.0547 10.1958 14.0905 10.2723 14.0863C10.33 14.0832 10.3881 14.0712 10.4443 14.0573C10.5722 14.0254 10.7012 13.9955 10.8262 13.9545C10.9685 13.908 11.1092 13.8546 11.2471 13.7966C11.4215 13.7233 11.5932 13.6438 11.7644 13.5636C11.8623 13.5178 11.9569 13.4654 12.0526 13.415C12.1068 13.3865 12.1607 13.357 12.2129 13.3253C12.2225 13.3195 12.229 13.2985 12.2263 13.2868C12.2243 13.2778 12.2059 13.2671 12.194 13.2666C12.1473 13.2639 12.1003 13.2644 12.0533 13.2646C11.1596 13.2649 10.2659 13.2654 9.37241 13.2659C9.31601 13.2659 9.25985 13.2654 9.19873 13.2654ZM7.00355 13.5522C6.95833 13.5671 6.92926 13.5705 6.9074 13.5848C6.8254 13.6385 6.74763 13.6989 6.6644 13.7503C6.58563 13.799 6.50116 13.8385 6.4209 13.8851C6.37369 13.9124 6.32922 13.9445 6.28499 13.9764C6.23729 14.0108 6.19058 14.0466 6.14511 14.0834C6.0974 14.1219 6.05094 14.1621 6.00497 14.2026C5.99007 14.2157 5.97839 14.2321 5.96522 14.2469C5.98559 14.2542 6.00597 14.2669 6.02684 14.2681C6.23306 14.281 6.43929 14.2947 6.64576 14.3032C6.76503 14.3081 6.88454 14.3042 7.00355 14.3042V13.5522ZM9.00245 14.2508C8.97486 14.2194 8.96468 14.2011 8.94903 14.1909C8.78504 14.0849 8.61882 13.9816 8.45558 13.8743C8.32687 13.7898 8.20214 13.6989 8.07344 13.6143C8.03219 13.5873 7.98324 13.5719 7.92237 13.5439C7.92237 13.5897 7.92237 13.6124 7.92237 13.635C7.92361 13.8202 7.92486 14.0054 7.92585 14.1906C7.92635 14.3098 7.92759 14.3137 8.05058 14.3088C8.25482 14.3008 8.45881 14.2903 8.66279 14.2784C8.76864 14.2723 8.87374 14.2616 9.00245 14.2508Z" fill="white"/>
<path d="M9.18255 20.2789C9.18255 20.9215 9.1813 21.5644 9.18354 22.2069C9.18404 22.3687 9.14304 22.4928 8.96415 22.544C8.90402 22.5613 8.85631 22.6171 8.79867 22.647C8.75693 22.6687 8.70649 22.6743 8.66226 22.6921C8.53132 22.7445 8.40311 22.8045 8.27043 22.8517C8.17676 22.8851 8.07812 22.9083 7.97998 22.9263C7.82941 22.9538 7.6776 22.9802 7.52529 22.9938C7.41597 23.0035 7.30416 22.995 7.19409 22.9879C7.11085 22.9828 7.02687 22.9733 6.94562 22.9553C6.82388 22.928 6.70238 22.8966 6.58436 22.8568C6.50857 22.8313 6.43801 22.7901 6.3672 22.7518C6.22185 22.6729 6.09041 22.5769 5.97885 22.454C5.80393 22.2615 5.72069 22.0342 5.70728 21.78C5.7028 21.6937 5.71374 21.606 5.7038 21.5205C5.64491 21.008 5.68914 20.4943 5.68044 19.9814C5.6715 19.4665 5.67796 18.9513 5.67895 18.4362C5.67895 18.3699 5.68119 18.3024 5.69436 18.2381C5.69908 18.2147 5.73858 18.1818 5.76343 18.1811C5.97612 18.173 6.18905 18.1698 6.40198 18.1703C6.42186 18.1703 6.45292 18.2018 6.45888 18.2237C6.47081 18.2678 6.47205 18.3156 6.47205 18.3616C6.47155 19.3802 6.46907 20.3986 6.47056 21.4172C6.47056 21.5405 6.47926 21.6667 6.50833 21.7859C6.52746 21.8646 6.57814 21.9382 6.64001 22.0023C6.78189 22.1489 6.96227 22.1867 7.15558 22.2225C7.38441 22.2647 7.60679 22.2394 7.82643 22.1987C7.98892 22.1687 8.14297 22.0944 8.301 22.04C8.3656 22.0178 8.39566 21.9606 8.39889 21.9067C8.40784 21.7535 8.40262 21.5994 8.40311 21.4459C8.40311 21.4274 8.40262 21.4089 8.40262 21.3904C8.40262 20.381 8.40237 19.3719 8.40311 18.3626C8.40311 18.3173 8.40734 18.2702 8.42026 18.2271C8.42622 18.2079 8.45852 18.1835 8.47914 18.183C8.69431 18.1796 8.90948 18.1796 9.12465 18.182C9.13981 18.182 9.16341 18.2049 9.16764 18.2213C9.17783 18.2585 9.1823 18.2985 9.1823 18.3373C9.18304 18.9845 9.1823 19.6317 9.18255 20.2789Z" fill="white"/>
<path d="M13.9642 21.9555C14.2885 21.9725 14.4813 22.1819 14.4994 22.4813C14.5146 22.7321 14.2234 23.0123 13.968 22.995C13.6383 22.9724 13.4502 22.7818 13.4415 22.4667C13.4338 22.1853 13.6745 21.9547 13.9642 21.9555Z" fill="white"/>
</g>
<defs>
<clipPath id="clip0_2_1362">
<rect width="14" height="23" fill="white" transform="translate(0.5)"/>
</clipPath>
</defs>
</svg>
