<svg width="16" height="16" viewBox="0 0 16 16" fill="none" xmlns="http://www.w3.org/2000/svg">
<g clip-path="url(#clip0_294_5074)">
<path d="M15.3181 5.66881L13.939 4.28975C13.8277 4.17998 13.6794 4.11589 13.5232 4.11011C13.367 4.10432 13.2143 4.15727 13.0953 4.2585C12.9114 4.41498 12.6755 4.49668 12.4343 4.48742C12.193 4.47816 11.9641 4.37861 11.7928 4.2085C11.6227 4.03721 11.5232 3.80832 11.514 3.56715C11.5047 3.32598 11.5864 3.09013 11.7428 2.90631C11.844 2.78723 11.8969 2.63455 11.8911 2.47836C11.8854 2.32217 11.8213 2.17382 11.7115 2.06256L10.3312 0.681935C10.2145 0.56551 10.0565 0.500122 9.89166 0.500122C9.72685 0.500122 9.56877 0.56551 9.45213 0.681935L7.25369 2.88006C7.11798 3.0163 7.01563 3.18208 6.95463 3.36444C6.94275 3.3995 6.92296 3.43135 6.89678 3.45753C6.87061 3.48371 6.83875 3.5035 6.80369 3.51537C6.62125 3.57636 6.45545 3.67884 6.31931 3.81475L0.681813 9.45225C0.565388 9.5689 0.5 9.72697 0.5 9.89178C0.5 10.0566 0.565388 10.2147 0.681813 10.3313L2.06244 11.7104C2.1737 11.8201 2.32205 11.8842 2.47824 11.89C2.63442 11.8958 2.78711 11.8429 2.90619 11.7416C3.08959 11.5839 3.32583 11.5013 3.56757 11.5103C3.80931 11.5194 4.03869 11.6195 4.20974 11.7906C4.3808 11.9616 4.48089 12.191 4.48997 12.4327C4.49905 12.6745 4.41643 12.9107 4.25869 13.0941C4.15746 13.2132 4.10451 13.3659 4.1103 13.5221C4.11608 13.6783 4.18017 13.8266 4.28994 13.9379L5.669 15.3169C5.78565 15.4334 5.94372 15.4987 6.10853 15.4987C6.27334 15.4987 6.43141 15.4334 6.54806 15.3169L12.1856 9.67943C12.3214 9.54339 12.4239 9.3777 12.4849 9.19537C12.4968 9.1602 12.5166 9.12823 12.5428 9.10199C12.569 9.07575 12.601 9.05594 12.6362 9.04412C12.8185 8.98314 12.9841 8.88078 13.1203 8.74506L15.3184 6.54662C15.4344 6.42999 15.4995 6.27215 15.4994 6.10765C15.4994 5.94315 15.4341 5.78537 15.3181 5.66881ZM8.1815 4.74225C8.13507 4.78869 8.07995 4.82553 8.01927 4.85066C7.9586 4.8758 7.89358 4.88873 7.82791 4.88873C7.76224 4.88873 7.69721 4.8758 7.63654 4.85066C7.57587 4.82553 7.52074 4.78869 7.47431 4.74225L7.11463 4.38256C7.02314 4.28832 6.97241 4.16187 6.9734 4.03053C6.97439 3.89919 7.02702 3.77351 7.11991 3.68066C7.2128 3.58781 7.3385 3.53523 7.46984 3.5343C7.60118 3.53337 7.72761 3.58416 7.82181 3.67569L8.1815 4.03506C8.22794 4.08149 8.26478 4.13662 8.28992 4.19729C8.31505 4.25796 8.32799 4.32298 8.32799 4.38865C8.32799 4.45432 8.31505 4.51935 8.28992 4.58002C8.26478 4.64069 8.22794 4.69582 8.1815 4.74225ZM9.5565 6.11725C9.46274 6.21095 9.33561 6.26358 9.20306 6.26358C9.07051 6.26358 8.94338 6.21095 8.84963 6.11725L8.50588 5.7735C8.4121 5.67972 8.35941 5.55253 8.35941 5.4199C8.35941 5.28728 8.4121 5.16009 8.50588 5.06631C8.59965 4.97253 8.72685 4.91985 8.85947 4.91985C8.99209 4.91985 9.11928 4.97253 9.21306 5.06631L9.55681 5.41006C9.60342 5.45649 9.6404 5.51165 9.66564 5.5724C9.69089 5.63315 9.7039 5.69828 9.70393 5.76406C9.70395 5.82984 9.691 5.89498 9.66581 5.95575C9.64062 6.01652 9.60369 6.07172 9.55713 6.11819L9.5565 6.11725ZM10.9315 7.49225C10.8851 7.53869 10.8299 7.57553 10.7693 7.60066C10.7086 7.6258 10.6436 7.63873 10.5779 7.63873C10.5122 7.63873 10.4472 7.6258 10.3865 7.60066C10.3259 7.57553 10.2707 7.53869 10.2243 7.49225L9.88056 7.1485C9.78908 7.05426 9.73835 6.9278 9.73934 6.79646C9.74033 6.66512 9.79295 6.53945 9.88585 6.4466C9.97874 6.35374 10.1044 6.30117 10.2358 6.30024C10.3671 6.29931 10.4936 6.3501 10.5878 6.44162L10.9315 6.78537C10.9782 6.83172 11.0154 6.88684 11.0407 6.94757C11.0661 7.0083 11.0793 7.07345 11.0794 7.13927C11.0795 7.20509 11.0667 7.27029 11.0416 7.33113C11.0165 7.39197 10.9796 7.44725 10.9331 7.49381L10.9315 7.49225ZM12.3199 8.88412C12.2735 8.93056 12.2184 8.9674 12.1577 8.99254C12.097 9.01767 12.032 9.03061 11.9663 9.03061C11.9007 9.03061 11.8356 9.01767 11.775 8.99254C11.7143 8.9674 11.6592 8.93056 11.6128 8.88412L11.2553 8.52475C11.2078 8.47845 11.1701 8.4232 11.1442 8.36219C11.1184 8.30118 11.1049 8.23564 11.1045 8.16937C11.1042 8.10311 11.1171 8.03744 11.1424 7.97618C11.1677 7.91493 11.2049 7.85932 11.2518 7.81257C11.2988 7.76583 11.3546 7.72889 11.416 7.7039C11.4774 7.67891 11.5431 7.66637 11.6094 7.66701C11.6756 7.66764 11.7411 7.68145 11.802 7.70762C11.8629 7.73379 11.9179 7.77179 11.964 7.81944L12.3218 8.1785C12.3682 8.22495 12.405 8.28009 12.4302 8.34077C12.4553 8.40145 12.4682 8.46649 12.4681 8.53216C12.4681 8.59783 12.4551 8.66285 12.43 8.72351C12.4048 8.78417 12.368 8.83927 12.3215 8.88568L12.3199 8.88412Z" fill="white"/>
</g>
<defs>
<clipPath id="clip0_294_5074">
<rect width="16" height="16" fill="white"/>
</clipPath>
</defs>
</svg>
