<svg width="250" height="250" viewBox="0 0 250 250" fill="none" xmlns="http://www.w3.org/2000/svg">
<g clip-path="url(#clip0_294_4598)">
<g clip-path="url(#clip1_294_4598)">
<path d="M250 0H0V250H250V0Z" fill="white"/>
<mask id="mask0_294_4598" style="mask-type:luminance" maskUnits="userSpaceOnUse" x="15" y="15" width="219" height="219">
<path d="M23.3333 83.3334H15.8333V90.8334H23.3333V83.3334Z" fill="white"/>
<path d="M23.3333 90.8334H15.8333V98.3334H23.3333V90.8334Z" fill="white"/>
<path d="M23.3333 105.833H15.8333V113.333H23.3333V105.833Z" fill="white"/>
<path d="M23.3333 135.833H15.8333V143.333H23.3333V135.833Z" fill="white"/>
<path d="M23.3333 143.333H15.8333V150.833H23.3333V143.333Z" fill="white"/>
<path d="M23.3333 158.333H15.8333V165.833H23.3333V158.333Z" fill="white"/>
<path d="M23.3333 165.833H15.8333V173.333H23.3333V165.833Z" fill="white"/>
<path d="M30.8333 75.8334H23.3333V83.3334H30.8333V75.8334Z" fill="white"/>
<path d="M30.8333 90.8334H23.3333V98.3334H30.8333V90.8334Z" fill="white"/>
<path d="M30.8333 158.333H23.3333V165.833H30.8333V158.333Z" fill="white"/>
<path d="M38.3333 83.3334H30.8333V90.8334H38.3333V83.3334Z" fill="white"/>
<path d="M38.3333 105.833H30.8333V113.333H38.3333V105.833Z" fill="white"/>
<path d="M38.3333 113.333H30.8333V120.833H38.3333V113.333Z" fill="white"/>
<path d="M38.3333 120.833H30.8333V128.333H38.3333V120.833Z" fill="white"/>
<path d="M38.3333 135.833H30.8333V143.333H38.3333V135.833Z" fill="white"/>
<path d="M38.3333 150.833H30.8333V158.333H38.3333V150.833Z" fill="white"/>
<path d="M38.3333 158.333H30.8333V165.833H38.3333V158.333Z" fill="white"/>
<path d="M45.8333 75.8334H38.3333V83.3334H45.8333V75.8334Z" fill="white"/>
<path d="M45.8333 83.3334H38.3333V90.8334H45.8333V83.3334Z" fill="white"/>
<path d="M45.8333 90.8334H38.3333V98.3334H45.8333V90.8334Z" fill="white"/>
<path d="M45.8333 105.833H38.3333V113.333H45.8333V105.833Z" fill="white"/>
<path d="M45.8333 128.333H38.3333V135.833H45.8333V128.333Z" fill="white"/>
<path d="M45.8333 135.833H38.3333V143.333H45.8333V135.833Z" fill="white"/>
<path d="M45.8333 143.333H38.3333V150.833H45.8333V143.333Z" fill="white"/>
<path d="M45.8333 150.833H38.3333V158.333H45.8333V150.833Z" fill="white"/>
<path d="M53.3333 75.8334H45.8333V83.3334H53.3333V75.8334Z" fill="white"/>
<path d="M53.3333 98.3334H45.8333V105.833H53.3333V98.3334Z" fill="white"/>
<path d="M53.3333 105.833H45.8333V113.333H53.3333V105.833Z" fill="white"/>
<path d="M53.3333 113.333H45.8333V120.833H53.3333V113.333Z" fill="white"/>
<path d="M53.3333 120.833H45.8333V128.333H53.3333V120.833Z" fill="white"/>
<path d="M53.3333 150.833H45.8333V158.333H53.3333V150.833Z" fill="white"/>
<path d="M53.3333 158.333H45.8333V165.833H53.3333V158.333Z" fill="white"/>
<path d="M60.8333 105.833H53.3333V113.333H60.8333V105.833Z" fill="white"/>
<path d="M60.8333 113.333H53.3333V120.833H60.8333V113.333Z" fill="white"/>
<path d="M60.8333 165.833H53.3333V173.333H60.8333V165.833Z" fill="white"/>
<path d="M68.3333 75.8334H60.8333V83.3334H68.3333V75.8334Z" fill="white"/>
<path d="M68.3333 90.8334H60.8333V98.3334H68.3333V90.8334Z" fill="white"/>
<path d="M68.3333 105.833H60.8333V113.333H68.3333V105.833Z" fill="white"/>
<path d="M68.3333 120.833H60.8333V128.333H68.3333V120.833Z" fill="white"/>
<path d="M68.3333 135.833H60.8333V143.333H68.3333V135.833Z" fill="white"/>
<path d="M68.3333 150.833H60.8333V158.333H68.3333V150.833Z" fill="white"/>
<path d="M68.3333 165.833H60.8333V173.333H68.3333V165.833Z" fill="white"/>
<path d="M75.8333 75.8334H68.3333V83.3334H75.8333V75.8334Z" fill="white"/>
<path d="M75.8333 83.3334H68.3333V90.8334H75.8333V83.3334Z" fill="white"/>
<path d="M75.8333 120.833H68.3333V128.333H75.8333V120.833Z" fill="white"/>
<path d="M75.8333 143.333H68.3333V150.833H75.8333V143.333Z" fill="white"/>
<path d="M75.8333 150.833H68.3333V158.333H75.8333V150.833Z" fill="white"/>
<path d="M75.8333 158.333H68.3333V165.833H75.8333V158.333Z" fill="white"/>
<path d="M83.3333 23.3334H75.8333V30.8334H83.3333V23.3334Z" fill="white"/>
<path d="M83.3333 38.3334H75.8333V45.8334H83.3333V38.3334Z" fill="white"/>
<path d="M83.3333 45.8334H75.8333V53.3334H83.3333V45.8334Z" fill="white"/>
<path d="M83.3333 53.3334H75.8333V60.8334H83.3333V53.3334Z" fill="white"/>
<path d="M83.3333 60.8334H75.8333V68.3334H83.3333V60.8334Z" fill="white"/>
<path d="M83.3333 75.8334H75.8333V83.3334H83.3333V75.8334Z" fill="white"/>
<path d="M83.3333 83.3334H75.8333V90.8334H83.3333V83.3334Z" fill="white"/>
<path d="M83.3333 90.8334H75.8333V98.3334H83.3333V90.8334Z" fill="white"/>
<path d="M83.3333 113.333H75.8333V120.833H83.3333V113.333Z" fill="white"/>
<path d="M83.3333 120.833H75.8333V128.333H83.3333V120.833Z" fill="white"/>
<path d="M83.3333 135.833H75.8333V143.333H83.3333V135.833Z" fill="white"/>
<path d="M83.3333 158.333H75.8333V165.833H83.3333V158.333Z" fill="white"/>
<path d="M83.3333 173.333H75.8333V180.833H83.3333V173.333Z" fill="white"/>
<path d="M83.3333 180.833H75.8333V188.333H83.3333V180.833Z" fill="white"/>
<path d="M83.3333 195.833H75.8333V203.333H83.3333V195.833Z" fill="white"/>
<path d="M83.3333 203.333H75.8333V210.833H83.3333V203.333Z" fill="white"/>
<path d="M83.3333 218.333H75.8333V225.833H83.3333V218.333Z" fill="white"/>
<path d="M90.8333 38.3334H83.3333V45.8334H90.8333V38.3334Z" fill="white"/>
<path d="M90.8333 45.8334H83.3333V53.3334H90.8333V45.8334Z" fill="white"/>
<path d="M90.8333 68.3334H83.3333V75.8334H90.8333V68.3334Z" fill="white"/>
<path d="M90.8333 75.8334H83.3333V83.3334H90.8333V75.8334Z" fill="white"/>
<path d="M90.8333 98.3334H83.3333V105.833H90.8333V98.3334Z" fill="white"/>
<path d="M90.8333 113.333H83.3333V120.833H90.8333V113.333Z" fill="white"/>
<path d="M90.8333 128.333H83.3333V135.833H90.8333V128.333Z" fill="white"/>
<path d="M90.8333 143.333H83.3333V150.833H90.8333V143.333Z" fill="white"/>
<path d="M90.8333 150.833H83.3333V158.333H90.8333V150.833Z" fill="white"/>
<path d="M90.8333 173.333H83.3333V180.833H90.8333V173.333Z" fill="white"/>
<path d="M90.8333 195.833H83.3333V203.333H90.8333V195.833Z" fill="white"/>
<path d="M90.8333 203.333H83.3333V210.833H90.8333V203.333Z" fill="white"/>
<path d="M90.8333 218.333H83.3333V225.833H90.8333V218.333Z" fill="white"/>
<path d="M98.3333 15.8334H90.8333V23.3334H98.3333V15.8334Z" fill="white"/>
<path d="M98.3333 23.3334H90.8333V30.8334H98.3333V23.3334Z" fill="white"/>
<path d="M98.3333 30.8334H90.8333V38.3334H98.3333V30.8334Z" fill="white"/>
<path d="M98.3333 38.3334H90.8333V45.8334H98.3333V38.3334Z" fill="white"/>
<path d="M98.3333 45.8334H90.8333V53.3334H98.3333V45.8334Z" fill="white"/>
<path d="M98.3333 53.3334H90.8333V60.8334H98.3333V53.3334Z" fill="white"/>
<path d="M98.3333 60.8334H90.8333V68.3334H98.3333V60.8334Z" fill="white"/>
<path d="M98.3333 68.3334H90.8333V75.8334H98.3333V68.3334Z" fill="white"/>
<path d="M98.3333 105.833H90.8333V113.333H98.3333V105.833Z" fill="white"/>
<path d="M98.3333 120.833H90.8333V128.333H98.3333V120.833Z" fill="white"/>
<path d="M98.3333 143.333H90.8333V150.833H98.3333V143.333Z" fill="white"/>
<path d="M98.3333 158.333H90.8333V165.833H98.3333V158.333Z" fill="white"/>
<path d="M98.3333 165.833H90.8333V173.333H98.3333V165.833Z" fill="white"/>
<path d="M98.3333 173.333H90.8333V180.833H98.3333V173.333Z" fill="white"/>
<path d="M98.3333 180.833H90.8333V188.333H98.3333V180.833Z" fill="white"/>
<path d="M98.3333 203.333H90.8333V210.833H98.3333V203.333Z" fill="white"/>
<path d="M98.3333 210.833H90.8333V218.333H98.3333V210.833Z" fill="white"/>
<path d="M105.833 15.8334H98.3333V23.3334H105.833V15.8334Z" fill="white"/>
<path d="M105.833 38.3334H98.3333V45.8334H105.833V38.3334Z" fill="white"/>
<path d="M105.833 53.3334H98.3333V60.8334H105.833V53.3334Z" fill="white"/>
<path d="M105.833 68.3334H98.3333V75.8334H105.833V68.3334Z" fill="white"/>
<path d="M105.833 83.3334H98.3333V90.8334H105.833V83.3334Z" fill="white"/>
<path d="M105.833 98.3334H98.3333V105.833H105.833V98.3334Z" fill="white"/>
<path d="M105.833 105.833H98.3333V113.333H105.833V105.833Z" fill="white"/>
<path d="M105.833 113.333H98.3333V120.833H105.833V113.333Z" fill="white"/>
<path d="M105.833 120.833H98.3333V128.333H105.833V120.833Z" fill="white"/>
<path d="M105.833 128.333H98.3333V135.833H105.833V128.333Z" fill="white"/>
<path d="M105.833 143.333H98.3333V150.833H105.833V143.333Z" fill="white"/>
<path d="M105.833 158.333H98.3333V165.833H105.833V158.333Z" fill="white"/>
<path d="M105.833 165.833H98.3333V173.333H105.833V165.833Z" fill="white"/>
<path d="M105.833 188.333H98.3333V195.833H105.833V188.333Z" fill="white"/>
<path d="M105.833 195.833H98.3333V203.333H105.833V195.833Z" fill="white"/>
<path d="M105.833 225.833H98.3333V233.333H105.833V225.833Z" fill="white"/>
<path d="M113.333 23.3334H105.833V30.8334H113.333V23.3334Z" fill="white"/>
<path d="M113.333 60.8334H105.833V68.3334H113.333V60.8334Z" fill="white"/>
<path d="M113.333 90.8334H105.833V98.3334H113.333V90.8334Z" fill="white"/>
<path d="M113.333 98.3334H105.833V105.833H113.333V98.3334Z" fill="white"/>
<path d="M113.333 105.833H105.833V113.333H113.333V105.833Z" fill="white"/>
<path d="M113.333 120.833H105.833V128.333H113.333V120.833Z" fill="white"/>
<path d="M113.333 135.833H105.833V143.333H113.333V135.833Z" fill="white"/>
<path d="M113.333 165.833H105.833V173.333H113.333V165.833Z" fill="white"/>
<path d="M113.333 173.333H105.833V180.833H113.333V173.333Z" fill="white"/>
<path d="M113.333 180.833H105.833V188.333H113.333V180.833Z" fill="white"/>
<path d="M113.333 203.333H105.833V210.833H113.333V203.333Z" fill="white"/>
<path d="M113.333 218.333H105.833V225.833H113.333V218.333Z" fill="white"/>
<path d="M120.833 23.3334H113.333V30.8334H120.833V23.3334Z" fill="white"/>
<path d="M120.833 30.8334H113.333V38.3334H120.833V30.8334Z" fill="white"/>
<path d="M120.833 38.3334H113.333V45.8334H120.833V38.3334Z" fill="white"/>
<path d="M120.833 45.8334H113.333V53.3334H120.833V45.8334Z" fill="white"/>
<path d="M120.833 53.3334H113.333V60.8334H120.833V53.3334Z" fill="white"/>
<path d="M120.833 98.3334H113.333V105.833H120.833V98.3334Z" fill="white"/>
<path d="M120.833 120.833H113.333V128.333H120.833V120.833Z" fill="white"/>
<path d="M120.833 128.333H113.333V135.833H120.833V128.333Z" fill="white"/>
<path d="M120.833 180.833H113.333V188.333H120.833V180.833Z" fill="white"/>
<path d="M120.833 195.833H113.333V203.333H120.833V195.833Z" fill="white"/>
<path d="M120.833 210.833H113.333V218.333H120.833V210.833Z" fill="white"/>
<path d="M120.833 225.833H113.333V233.333H120.833V225.833Z" fill="white"/>
<path d="M128.333 15.8334H120.833V23.3334H128.333V15.8334Z" fill="white"/>
<path d="M128.333 23.3334H120.833V30.8334H128.333V23.3334Z" fill="white"/>
<path d="M128.333 45.8334H120.833V53.3334H128.333V45.8334Z" fill="white"/>
<path d="M128.333 53.3334H120.833V60.8334H128.333V53.3334Z" fill="white"/>
<path d="M128.333 60.8334H120.833V68.3334H128.333V60.8334Z" fill="white"/>
<path d="M128.333 68.3334H120.833V75.8334H128.333V68.3334Z" fill="white"/>
<path d="M128.333 75.8334H120.833V83.3334H128.333V75.8334Z" fill="white"/>
<path d="M128.333 83.3334H120.833V90.8334H128.333V83.3334Z" fill="white"/>
<path d="M128.333 90.8334H120.833V98.3334H128.333V90.8334Z" fill="white"/>
<path d="M128.333 98.3334H120.833V105.833H128.333V98.3334Z" fill="white"/>
<path d="M128.333 113.333H120.833V120.833H128.333V113.333Z" fill="white"/>
<path d="M128.333 128.333H120.833V135.833H128.333V128.333Z" fill="white"/>
<path d="M128.333 135.833H120.833V143.333H128.333V135.833Z" fill="white"/>
<path d="M128.333 150.833H120.833V158.333H128.333V150.833Z" fill="white"/>
<path d="M128.333 158.333H120.833V165.833H128.333V158.333Z" fill="white"/>
<path d="M128.333 165.833H120.833V173.333H128.333V165.833Z" fill="white"/>
<path d="M128.333 180.833H120.833V188.333H128.333V180.833Z" fill="white"/>
<path d="M128.333 188.333H120.833V195.833H128.333V188.333Z" fill="white"/>
<path d="M128.333 203.333H120.833V210.833H128.333V203.333Z" fill="white"/>
<path d="M128.333 225.833H120.833V233.333H128.333V225.833Z" fill="white"/>
<path d="M135.833 15.8334H128.333V23.3334H135.833V15.8334Z" fill="white"/>
<path d="M135.833 30.8334H128.333V38.3334H135.833V30.8334Z" fill="white"/>
<path d="M135.833 68.3334H128.333V75.8334H135.833V68.3334Z" fill="white"/>
<path d="M135.833 75.8334H128.333V83.3334H135.833V75.8334Z" fill="white"/>
<path d="M135.833 83.3334H128.333V90.8334H135.833V83.3334Z" fill="white"/>
<path d="M135.833 98.3334H128.333V105.833H135.833V98.3334Z" fill="white"/>
<path d="M135.833 120.833H128.333V128.333H135.833V120.833Z" fill="white"/>
<path d="M135.833 158.333H128.333V165.833H135.833V158.333Z" fill="white"/>
<path d="M135.833 195.833H128.333V203.333H135.833V195.833Z" fill="white"/>
<path d="M135.833 203.333H128.333V210.833H135.833V203.333Z" fill="white"/>
<path d="M135.833 210.833H128.333V218.333H135.833V210.833Z" fill="white"/>
<path d="M135.833 218.333H128.333V225.833H135.833V218.333Z" fill="white"/>
<path d="M143.333 15.8334H135.833V23.3334H143.333V15.8334Z" fill="white"/>
<path d="M143.333 23.3334H135.833V30.8334H143.333V23.3334Z" fill="white"/>
<path d="M143.333 30.8334H135.833V38.3334H143.333V30.8334Z" fill="white"/>
<path d="M143.333 45.8334H135.833V53.3334H143.333V45.8334Z" fill="white"/>
<path d="M143.333 53.3334H135.833V60.8334H143.333V53.3334Z" fill="white"/>
<path d="M143.333 60.8334H135.833V68.3334H143.333V60.8334Z" fill="white"/>
<path d="M143.333 68.3334H135.833V75.8334H143.333V68.3334Z" fill="white"/>
<path d="M143.333 75.8334H135.833V83.3334H143.333V75.8334Z" fill="white"/>
<path d="M143.333 98.3334H135.833V105.833H143.333V98.3334Z" fill="white"/>
<path d="M143.333 120.833H135.833V128.333H143.333V120.833Z" fill="white"/>
<path d="M143.333 128.333H135.833V135.833H143.333V128.333Z" fill="white"/>
<path d="M143.333 143.333H135.833V150.833H143.333V143.333Z" fill="white"/>
<path d="M143.333 150.833H135.833V158.333H143.333V150.833Z" fill="white"/>
<path d="M143.333 165.833H135.833V173.333H143.333V165.833Z" fill="white"/>
<path d="M143.333 188.333H135.833V195.833H143.333V188.333Z" fill="white"/>
<path d="M143.333 195.833H135.833V203.333H143.333V195.833Z" fill="white"/>
<path d="M143.333 203.333H135.833V210.833H143.333V203.333Z" fill="white"/>
<path d="M143.333 225.833H135.833V233.333H143.333V225.833Z" fill="white"/>
<path d="M150.833 15.8334H143.333V23.3334H150.833V15.8334Z" fill="white"/>
<path d="M150.833 23.3334H143.333V30.8334H150.833V23.3334Z" fill="white"/>
<path d="M150.833 30.8334H143.333V38.3334H150.833V30.8334Z" fill="white"/>
<path d="M150.833 38.3334H143.333V45.8334H150.833V38.3334Z" fill="white"/>
<path d="M150.833 68.3334H143.333V75.8334H150.833V68.3334Z" fill="white"/>
<path d="M150.833 75.8334H143.333V83.3334H150.833V75.8334Z" fill="white"/>
<path d="M150.833 98.3334H143.333V105.833H150.833V98.3334Z" fill="white"/>
<path d="M150.833 113.333H143.333V120.833H150.833V113.333Z" fill="white"/>
<path d="M150.833 120.833H143.333V128.333H150.833V120.833Z" fill="white"/>
<path d="M150.833 143.333H143.333V150.833H150.833V143.333Z" fill="white"/>
<path d="M150.833 180.833H143.333V188.333H150.833V180.833Z" fill="white"/>
<path d="M150.833 195.833H143.333V203.333H150.833V195.833Z" fill="white"/>
<path d="M150.833 203.333H143.333V210.833H150.833V203.333Z" fill="white"/>
<path d="M150.833 210.833H143.333V218.333H150.833V210.833Z" fill="white"/>
<path d="M158.333 15.8334H150.833V23.3334H158.333V15.8334Z" fill="white"/>
<path d="M158.333 23.3334H150.833V30.8334H158.333V23.3334Z" fill="white"/>
<path d="M158.333 60.8334H150.833V68.3334H158.333V60.8334Z" fill="white"/>
<path d="M158.333 68.3334H150.833V75.8334H158.333V68.3334Z" fill="white"/>
<path d="M158.333 90.8334H150.833V98.3334H158.333V90.8334Z" fill="white"/>
<path d="M158.333 105.833H150.833V113.333H158.333V105.833Z" fill="white"/>
<path d="M158.333 135.833H150.833V143.333H158.333V135.833Z" fill="white"/>
<path d="M158.333 143.333H150.833V150.833H158.333V143.333Z" fill="white"/>
<path d="M158.333 150.833H150.833V158.333H158.333V150.833Z" fill="white"/>
<path d="M158.333 158.333H150.833V165.833H158.333V158.333Z" fill="white"/>
<path d="M158.333 225.833H150.833V233.333H158.333V225.833Z" fill="white"/>
<path d="M165.833 15.8334H158.333V23.3334H165.833V15.8334Z" fill="white"/>
<path d="M165.833 23.3334H158.333V30.8334H165.833V23.3334Z" fill="white"/>
<path d="M165.833 38.3334H158.333V45.8334H165.833V38.3334Z" fill="white"/>
<path d="M165.833 45.8334H158.333V53.3334H165.833V45.8334Z" fill="white"/>
<path d="M165.833 68.3334H158.333V75.8334H165.833V68.3334Z" fill="white"/>
<path d="M165.833 75.8334H158.333V83.3334H165.833V75.8334Z" fill="white"/>
<path d="M165.833 83.3334H158.333V90.8334H165.833V83.3334Z" fill="white"/>
<path d="M165.833 90.8334H158.333V98.3334H165.833V90.8334Z" fill="white"/>
<path d="M165.833 105.833H158.333V113.333H165.833V105.833Z" fill="white"/>
<path d="M165.833 120.833H158.333V128.333H165.833V120.833Z" fill="white"/>
<path d="M165.833 128.333H158.333V135.833H165.833V128.333Z" fill="white"/>
<path d="M165.833 135.833H158.333V143.333H165.833V135.833Z" fill="white"/>
<path d="M165.833 158.333H158.333V165.833H165.833V158.333Z" fill="white"/>
<path d="M165.833 165.833H158.333V173.333H165.833V165.833Z" fill="white"/>
<path d="M165.833 173.333H158.333V180.833H165.833V173.333Z" fill="white"/>
<path d="M165.833 180.833H158.333V188.333H165.833V180.833Z" fill="white"/>
<path d="M165.833 203.333H158.333V210.833H165.833V203.333Z" fill="white"/>
<path d="M165.833 210.833H158.333V218.333H165.833V210.833Z" fill="white"/>
<path d="M165.833 218.333H158.333V225.833H165.833V218.333Z" fill="white"/>
<path d="M173.333 15.8334H165.833V23.3334H173.333V15.8334Z" fill="white"/>
<path d="M173.333 23.3334H165.833V30.8334H173.333V23.3334Z" fill="white"/>
<path d="M173.333 45.8334H165.833V53.3334H173.333V45.8334Z" fill="white"/>
<path d="M173.333 53.3334H165.833V60.8334H173.333V53.3334Z" fill="white"/>
<path d="M173.333 60.8334H165.833V68.3334H173.333V60.8334Z" fill="white"/>
<path d="M173.333 68.3334H165.833V75.8334H173.333V68.3334Z" fill="white"/>
<path d="M173.333 75.8334H165.833V83.3334H173.333V75.8334Z" fill="white"/>
<path d="M173.333 98.3334H165.833V105.833H173.333V98.3334Z" fill="white"/>
<path d="M173.333 113.333H165.833V120.833H173.333V113.333Z" fill="white"/>
<path d="M173.333 120.833H165.833V128.333H173.333V120.833Z" fill="white"/>
<path d="M173.333 135.833H165.833V143.333H173.333V135.833Z" fill="white"/>
<path d="M173.333 143.333H165.833V150.833H173.333V143.333Z" fill="white"/>
<path d="M173.333 165.833H165.833V173.333H173.333V165.833Z" fill="white"/>
<path d="M173.333 173.333H165.833V180.833H173.333V173.333Z" fill="white"/>
<path d="M173.333 180.833H165.833V188.333H173.333V180.833Z" fill="white"/>
<path d="M173.333 188.333H165.833V195.833H173.333V188.333Z" fill="white"/>
<path d="M173.333 195.833H165.833V203.333H173.333V195.833Z" fill="white"/>
<path d="M173.333 210.833H165.833V218.333H173.333V210.833Z" fill="white"/>
<path d="M173.333 218.333H165.833V225.833H173.333V218.333Z" fill="white"/>
<path d="M180.833 75.8334H173.333V83.3334H180.833V75.8334Z" fill="white"/>
<path d="M180.833 90.8334H173.333V98.3334H180.833V90.8334Z" fill="white"/>
<path d="M180.833 98.3334H173.333V105.833H180.833V98.3334Z" fill="white"/>
<path d="M180.833 120.833H173.333V128.333H180.833V120.833Z" fill="white"/>
<path d="M180.833 128.333H173.333V135.833H180.833V128.333Z" fill="white"/>
<path d="M180.833 143.333H173.333V150.833H180.833V143.333Z" fill="white"/>
<path d="M180.833 165.833H173.333V173.333H180.833V165.833Z" fill="white"/>
<path d="M180.833 195.833H173.333V203.333H180.833V195.833Z" fill="white"/>
<path d="M180.833 203.333H173.333V210.833H180.833V203.333Z" fill="white"/>
<path d="M180.833 210.833H173.333V218.333H180.833V210.833Z" fill="white"/>
<path d="M188.333 113.333H180.833V120.833H188.333V113.333Z" fill="white"/>
<path d="M188.333 120.833H180.833V128.333H188.333V120.833Z" fill="white"/>
<path d="M188.333 128.333H180.833V135.833H188.333V128.333Z" fill="white"/>
<path d="M188.333 158.333H180.833V165.833H188.333V158.333Z" fill="white"/>
<path d="M188.333 165.833H180.833V173.333H188.333V165.833Z" fill="white"/>
<path d="M188.333 180.833H180.833V188.333H188.333V180.833Z" fill="white"/>
<path d="M188.333 195.833H180.833V203.333H188.333V195.833Z" fill="white"/>
<path d="M188.333 210.833H180.833V218.333H188.333V210.833Z" fill="white"/>
<path d="M195.833 75.8334H188.333V83.3334H195.833V75.8334Z" fill="white"/>
<path d="M195.833 83.3334H188.333V90.8334H195.833V83.3334Z" fill="white"/>
<path d="M195.833 90.8334H188.333V98.3334H195.833V90.8334Z" fill="white"/>
<path d="M195.833 98.3334H188.333V105.833H195.833V98.3334Z" fill="white"/>
<path d="M195.833 105.833H188.333V113.333H195.833V105.833Z" fill="white"/>
<path d="M195.833 128.333H188.333V135.833H195.833V128.333Z" fill="white"/>
<path d="M195.833 150.833H188.333V158.333H195.833V150.833Z" fill="white"/>
<path d="M195.833 158.333H188.333V165.833H195.833V158.333Z" fill="white"/>
<path d="M195.833 165.833H188.333V173.333H195.833V165.833Z" fill="white"/>
<path d="M195.833 195.833H188.333V203.333H195.833V195.833Z" fill="white"/>
<path d="M195.833 203.333H188.333V210.833H195.833V203.333Z" fill="white"/>
<path d="M195.833 218.333H188.333V225.833H195.833V218.333Z" fill="white"/>
<path d="M203.333 75.8334H195.833V83.3334H203.333V75.8334Z" fill="white"/>
<path d="M203.333 98.3334H195.833V105.833H203.333V98.3334Z" fill="white"/>
<path d="M203.333 113.333H195.833V120.833H203.333V113.333Z" fill="white"/>
<path d="M203.333 120.833H195.833V128.333H203.333V120.833Z" fill="white"/>
<path d="M203.333 143.333H195.833V150.833H203.333V143.333Z" fill="white"/>
<path d="M203.333 158.333H195.833V165.833H203.333V158.333Z" fill="white"/>
<path d="M203.333 165.833H195.833V173.333H203.333V165.833Z" fill="white"/>
<path d="M203.333 173.333H195.833V180.833H203.333V173.333Z" fill="white"/>
<path d="M203.333 180.833H195.833V188.333H203.333V180.833Z" fill="white"/>
<path d="M203.333 188.333H195.833V195.833H203.333V188.333Z" fill="white"/>
<path d="M203.333 195.833H195.833V203.333H203.333V195.833Z" fill="white"/>
<path d="M203.333 218.333H195.833V225.833H203.333V218.333Z" fill="white"/>
<path d="M203.333 225.833H195.833V233.333H203.333V225.833Z" fill="white"/>
<path d="M210.833 75.8334H203.333V83.3334H210.833V75.8334Z" fill="white"/>
<path d="M210.833 113.333H203.333V120.833H210.833V113.333Z" fill="white"/>
<path d="M210.833 150.833H203.333V158.333H210.833V150.833Z" fill="white"/>
<path d="M210.833 188.333H203.333V195.833H210.833V188.333Z" fill="white"/>
<path d="M210.833 203.333H203.333V210.833H210.833V203.333Z" fill="white"/>
<path d="M210.833 210.833H203.333V218.333H210.833V210.833Z" fill="white"/>
<path d="M210.833 218.333H203.333V225.833H210.833V218.333Z" fill="white"/>
<path d="M218.333 83.3334H210.833V90.8334H218.333V83.3334Z" fill="white"/>
<path d="M218.333 105.833H210.833V113.333H218.333V105.833Z" fill="white"/>
<path d="M218.333 120.833H210.833V128.333H218.333V120.833Z" fill="white"/>
<path d="M218.333 128.333H210.833V135.833H218.333V128.333Z" fill="white"/>
<path d="M218.333 143.333H210.833V150.833H218.333V143.333Z" fill="white"/>
<path d="M218.333 150.833H210.833V158.333H218.333V150.833Z" fill="white"/>
<path d="M218.333 165.833H210.833V173.333H218.333V165.833Z" fill="white"/>
<path d="M218.333 173.333H210.833V180.833H218.333V173.333Z" fill="white"/>
<path d="M218.333 188.333H210.833V195.833H218.333V188.333Z" fill="white"/>
<path d="M218.333 195.833H210.833V203.333H218.333V195.833Z" fill="white"/>
<path d="M218.333 210.833H210.833V218.333H218.333V210.833Z" fill="white"/>
<path d="M218.333 218.333H210.833V225.833H218.333V218.333Z" fill="white"/>
<path d="M218.333 225.833H210.833V233.333H218.333V225.833Z" fill="white"/>
<path d="M225.833 75.8334H218.333V83.3334H225.833V75.8334Z" fill="white"/>
<path d="M225.833 90.8334H218.333V98.3334H225.833V90.8334Z" fill="white"/>
<path d="M225.833 98.3334H218.333V105.833H225.833V98.3334Z" fill="white"/>
<path d="M225.833 113.333H218.333V120.833H225.833V113.333Z" fill="white"/>
<path d="M225.833 120.833H218.333V128.333H225.833V120.833Z" fill="white"/>
<path d="M225.833 135.833H218.333V143.333H225.833V135.833Z" fill="white"/>
<path d="M225.833 150.833H218.333V158.333H225.833V150.833Z" fill="white"/>
<path d="M225.833 158.333H218.333V165.833H225.833V158.333Z" fill="white"/>
<path d="M225.833 165.833H218.333V173.333H225.833V165.833Z" fill="white"/>
<path d="M225.833 195.833H218.333V203.333H225.833V195.833Z" fill="white"/>
<path d="M225.833 203.333H218.333V210.833H225.833V203.333Z" fill="white"/>
<path d="M225.833 210.833H218.333V218.333H225.833V210.833Z" fill="white"/>
<path d="M225.833 225.833H218.333V233.333H225.833V225.833Z" fill="white"/>
<path d="M233.333 90.8334H225.833V98.3334H233.333V90.8334Z" fill="white"/>
<path d="M233.333 98.3334H225.833V105.833H233.333V98.3334Z" fill="white"/>
<path d="M233.333 128.333H225.833V135.833H233.333V128.333Z" fill="white"/>
<path d="M233.333 150.833H225.833V158.333H233.333V150.833Z" fill="white"/>
<path d="M233.333 158.333H225.833V165.833H233.333V158.333Z" fill="white"/>
<path d="M233.333 165.833H225.833V173.333H233.333V165.833Z" fill="white"/>
<path d="M233.333 173.333H225.833V180.833H233.333V173.333Z" fill="white"/>
<path d="M233.333 180.833H225.833V188.333H233.333V180.833Z" fill="white"/>
<path d="M233.333 188.333H225.833V195.833H233.333V188.333Z" fill="white"/>
<path d="M233.333 195.833H225.833V203.333H233.333V195.833Z" fill="white"/>
<path d="M233.333 210.833H225.833V218.333H233.333V210.833Z" fill="white"/>
</mask>
<g mask="url(#mask0_294_4598)">
<path d="M250 0H0V250H250V0Z" fill="black"/>
</g>
<mask id="mask1_294_4598" style="mask-type:luminance" maskUnits="userSpaceOnUse" x="15" y="15" width="54" height="54">
<path fill-rule="evenodd" clip-rule="evenodd" d="M15.8333 15.8334V68.3334H68.3333V15.8334H15.8333ZM23.3333 23.3334H60.8333V60.8334H23.3333V23.3334Z" fill="white"/>
</mask>
<g mask="url(#mask1_294_4598)">
<path d="M68.3333 15.8334H15.8333V68.3334H68.3333V15.8334Z" fill="black"/>
</g>
<mask id="mask2_294_4598" style="mask-type:luminance" maskUnits="userSpaceOnUse" x="30" y="30" width="24" height="24">
<path d="M53.3333 30.8334H30.8333V53.3334H53.3333V30.8334Z" fill="white"/>
</mask>
<g mask="url(#mask2_294_4598)">
<path d="M53.3333 30.8334H30.8333V53.3334H53.3333V30.8334Z" fill="black"/>
</g>
<mask id="mask3_294_4598" style="mask-type:luminance" maskUnits="userSpaceOnUse" x="180" y="15" width="54" height="54">
<path fill-rule="evenodd" clip-rule="evenodd" d="M233.333 15.8334L180.833 15.8334V68.3334H233.333V15.8334ZM225.833 23.3334V60.8334H188.333V23.3334L225.833 23.3334Z" fill="white"/>
</mask>
<g mask="url(#mask3_294_4598)">
<path d="M233.333 15.8334H180.833V68.3334H233.333V15.8334Z" fill="black"/>
</g>
<mask id="mask4_294_4598" style="mask-type:luminance" maskUnits="userSpaceOnUse" x="195" y="30" width="24" height="24">
<path d="M218.333 53.3334V30.8334H195.833V53.3334H218.333Z" fill="white"/>
</mask>
<g mask="url(#mask4_294_4598)">
<path d="M218.333 30.8334H195.833V53.3334H218.333V30.8334Z" fill="black"/>
</g>
<mask id="mask5_294_4598" style="mask-type:luminance" maskUnits="userSpaceOnUse" x="15" y="180" width="54" height="54">
<path fill-rule="evenodd" clip-rule="evenodd" d="M15.8333 233.333H68.3333V180.833H15.8333L15.8333 233.333ZM23.3333 225.833L23.3333 188.333H60.8333V225.833H23.3333Z" fill="white"/>
</mask>
<g mask="url(#mask5_294_4598)">
<path d="M68.3333 180.833H15.8333V233.333H68.3333V180.833Z" fill="black"/>
</g>
<mask id="mask6_294_4598" style="mask-type:luminance" maskUnits="userSpaceOnUse" x="30" y="195" width="24" height="24">
<path d="M30.8333 195.833V218.333H53.3333V195.833H30.8333Z" fill="white"/>
</mask>
<g mask="url(#mask6_294_4598)">
<path d="M53.3333 195.833H30.8333V218.333H53.3333V195.833Z" fill="black"/>
</g>
</g>
</g>
<defs>
<clipPath id="clip0_294_4598">
<rect width="250" height="250" fill="white"/>
</clipPath>
<clipPath id="clip1_294_4598">
<rect width="250" height="250" fill="white"/>
</clipPath>
</defs>
</svg>
