<svg width="64" height="83" viewBox="0 0 64 83" fill="none" xmlns="http://www.w3.org/2000/svg">
<g filter="url(#filter0_d_294_5079)">
<path d="M46.0081 30.0592L43.2551 30.0446L43.2602 26.943L54 16.3534L47.7249 10.1641L36.3289 21.3953C35.0658 22.6401 34.3705 24.2929 34.3705 26.0531V32.2179C34.3705 35.8545 37.3702 38.8108 41.0454 38.8108L43.8081 38.8254L43.8132 46.5994L36.7191 39.6079L31.7218 44.5329V41.8443C31.7218 39.1311 30.1434 36.7975 27.5929 35.7572C26.7688 35.4168 25.901 35.2469 25.0179 35.2469C23.2467 35.2469 21.5747 35.9372 20.3065 37.1871L10 47.3434L16.2802 53.5328L22.8417 47.0566V53.2846L14.7165 61.2923L20.9967 67.4816L22.8417 65.6633V72.1641H31.7218V56.9122L36.7191 51.9872L41.2677 56.4701C42.5354 57.7194 44.2079 58.4103 45.9792 58.4103C46.8622 58.4103 47.7306 58.2403 48.5592 57.8999C51.1046 56.8597 52.6882 54.5255 52.6882 51.8078V36.6532C52.6882 33.0166 49.6884 30.0603 46.0087 30.0603L46.0081 30.0592ZM51.2079 51.8067C51.2079 53.9263 49.9743 55.7401 47.9915 56.5517C47.3455 56.8144 46.6643 56.9503 45.9786 56.9503C44.6072 56.9503 43.305 56.4103 42.313 55.4383L36.7185 49.9202L31.7212 54.8452L30.2415 56.3035V70.7046H24.3215V62.138L22.8417 63.5963L20.9967 65.4146L16.8082 61.2917L22.8417 55.3455L24.3215 53.8871V43.5313L16.2802 51.4708L12.0917 47.3428L21.3518 38.2167C22.3386 37.2441 23.6409 36.7047 25.0174 36.7047C25.7031 36.7047 26.3791 36.8411 27.0302 37.1032C29.0136 37.9154 30.2421 39.7287 30.2421 41.8438V48.0527L31.7218 46.5944L36.7191 41.6694L45.2929 50.1242L45.2878 37.376L41.05 37.3519C38.1835 37.3519 35.8502 35.0473 35.8502 32.2179V26.0531C35.8502 24.682 36.393 23.3936 37.3747 22.426L47.7249 12.2255L51.9083 16.3534L41.7805 26.3348L41.7708 31.4935L46.0087 31.5181C48.8751 31.5181 51.2084 33.8227 51.2084 36.6521V51.8067H51.2079Z" fill="white"/>
</g>
<g filter="url(#filter1_d_294_5079)">
<path d="M45.9985 33.7058H41.0602C40.2265 33.7058 39.5505 33.0395 39.5505 32.2178V26.053C39.5505 25.6545 39.7081 25.285 39.9945 25.0027L48.7708 16.3534L47.725 15.3226L38.9487 23.972C38.3815 24.5265 38.0707 25.2654 38.0707 26.053V32.2178C38.0707 33.8416 39.4126 35.1641 41.0602 35.1641H45.9985C46.8272 35.1641 47.5083 35.8304 47.5083 36.652V51.8066C47.5083 52.4287 47.1578 52.9441 46.5759 53.1828C45.994 53.4209 45.3769 53.2996 44.9334 52.8619L36.7192 44.767L31.7219 49.6921L30.2422 51.1504L28.0223 53.3382V41.8442C28.0223 40.6335 27.3167 39.5883 26.1773 39.1266C25.0424 38.6598 23.7946 38.908 22.9212 39.7632L15.2305 47.3433L16.2763 48.374L23.9676 40.7939C24.4168 40.3563 25.0282 40.235 25.6152 40.4731C26.1971 40.7112 26.5426 41.2266 26.5426 41.8442V54.7965L24.3227 56.9843L22.8429 58.4426L19.9521 61.2916L20.998 62.3223L22.8429 60.504L24.3227 59.0457L26.5426 56.8579V68.5168H28.0223V55.3991L30.2422 53.2113L31.7219 51.7529L36.7192 46.8279L43.887 53.8921C44.7553 54.7479 46.0036 54.996 47.1431 54.5288C48.278 54.067 48.9881 53.0218 48.9881 51.806V36.6515C48.9881 35.0277 47.6461 33.7052 45.9985 33.7052V33.7058Z" fill="white"/>
</g>
<defs>
<filter id="filter0_d_294_5079" x="0" y="0.164062" width="64" height="82" filterUnits="userSpaceOnUse" color-interpolation-filters="sRGB">
<feFlood flood-opacity="0" result="BackgroundImageFix"/>
<feColorMatrix in="SourceAlpha" type="matrix" values="0 0 0 0 0 0 0 0 0 0 0 0 0 0 0 0 0 0 127 0" result="hardAlpha"/>
<feOffset/>
<feGaussianBlur stdDeviation="5"/>
<feComposite in2="hardAlpha" operator="out"/>
<feColorMatrix type="matrix" values="0 0 0 0 0.921569 0 0 0 0 0.411765 0 0 0 0 0.627451 0 0 0 1 0"/>
<feBlend mode="normal" in2="BackgroundImageFix" result="effect1_dropShadow_294_5079"/>
<feBlend mode="normal" in="SourceGraphic" in2="effect1_dropShadow_294_5079" result="shape"/>
</filter>
<filter id="filter1_d_294_5079" x="5.23047" y="5.32263" width="53.7576" height="73.1941" filterUnits="userSpaceOnUse" color-interpolation-filters="sRGB">
<feFlood flood-opacity="0" result="BackgroundImageFix"/>
<feColorMatrix in="SourceAlpha" type="matrix" values="0 0 0 0 0 0 0 0 0 0 0 0 0 0 0 0 0 0 127 0" result="hardAlpha"/>
<feOffset/>
<feGaussianBlur stdDeviation="5"/>
<feComposite in2="hardAlpha" operator="out"/>
<feColorMatrix type="matrix" values="0 0 0 0 0.921569 0 0 0 0 0.411765 0 0 0 0 0.627451 0 0 0 1 0"/>
<feBlend mode="normal" in2="BackgroundImageFix" result="effect1_dropShadow_294_5079"/>
<feBlend mode="normal" in="SourceGraphic" in2="effect1_dropShadow_294_5079" result="shape"/>
</filter>
</defs>
</svg>
