<svg width="14" height="14" viewBox="0 0 14 14" fill="none" xmlns="http://www.w3.org/2000/svg">
        <path d="M4.59992 10.3333L6.99992 7.93325L9.39992 10.3333L10.3333 9.39992L7.93325 6.99992L10.3333 4.59992L9.39992 3.66658L6.99992 6.06659L4.59992 3.66658L3.66658 4.59992L6.06659 6.99992L3.66658 9.39992L4.59992 10.3333ZM6.99992 13.6666C6.0777 13.6666 5.21103 13.4916 4.39992 13.1416C3.58881 12.7916 2.88325 12.3166 2.28325 11.7166C1.68325 11.1166 1.20825 10.411 0.858252 9.59992C0.508252 8.78881 0.333252 7.92214 0.333252 6.99992C0.333252 6.0777 0.508252 5.21103 0.858252 4.39992C1.20825 3.58881 1.68325 2.88325 2.28325 2.28325C2.88325 1.68325 3.58881 1.20825 4.39992 0.858252C5.21103 0.508252 6.0777 0.333252 6.99992 0.333252C7.92214 0.333252 8.78881 0.508252 9.59992 0.858252C10.411 1.20825 11.1166 1.68325 11.7166 2.28325C12.3166 2.88325 12.7916 3.58881 13.1416 4.39992C13.4916 5.21103 13.6666 6.0777 13.6666 6.99992C13.6666 7.92214 13.4916 8.78881 13.1416 9.59992C12.7916 10.411 12.3166 11.1166 11.7166 11.7166C11.1166 12.3166 10.411 12.7916 9.59992 13.1416C8.78881 13.4916 7.92214 13.6666 6.99992 13.6666Z"
                fill="white" />
</svg>