<svg width="16" height="17" viewBox="0 0 16 17" fill="none" xmlns="http://www.w3.org/2000/svg">
        <path d="M8.00001 7.25C5.73001 7.25 5.27001 3.81 5.27001 3.81C5.00001 2.02 5.82001 0 7.97001 0C10.13 0 10.95 2.02 10.68 3.81C10.68 3.81 10.27 7.25 8.00001 7.25ZM8.00001 9.82L10.72 8C13.11 8 15.24 10.33 15.24 12.53V15.02C15.24 15.02 11.59 16.15 8.00001 16.15C4.35001 16.15 0.76001 15.02 0.76001 15.02V12.53C0.76001 10.28 2.70001 8.05 5.23001 8.05L8.00001 9.82Z"
                fill="white" />
</svg>