<svg width="57" height="81" viewBox="0 0 57 81" fill="none" xmlns="http://www.w3.org/2000/svg">
<g clip-path="url(#clip0_2_1576)">
<path d="M46.6469 26.2063L43.0804 26.1873L43.0871 22.1351L57 8.30042L48.8709 0.214294L34.1079 14.8873C32.4716 16.5136 31.5708 18.673 31.5708 20.9726V29.0265C31.5708 33.7776 35.4568 37.6399 40.2179 37.6399L43.7968 37.6589L43.8034 47.8153L34.6134 38.6813L28.1396 45.1155V41.603C28.1396 38.0584 26.0948 35.0095 22.7907 33.6505C21.7232 33.2058 20.599 32.9838 19.455 32.9838C17.1605 32.9838 14.9945 33.8857 13.3516 35.5185L0 48.7873L8.13572 56.8734L16.6359 48.4127V56.5492L6.11006 67.0108L14.2458 75.0969L16.6359 72.7214V81.2143H28.1396V61.2885L34.6134 54.8542L40.5059 60.7109C42.1481 62.343 44.3148 63.2456 46.6094 63.2456C47.7534 63.2456 48.8782 63.0236 49.9517 62.5789C53.2492 61.2199 55.3006 58.1703 55.3006 54.6198V34.8211C55.3006 30.0701 51.4145 26.2078 46.6476 26.2078L46.6469 26.2063ZM53.3829 54.6184C53.3829 57.3875 51.7849 59.7572 49.2162 60.8175C48.3794 61.1607 47.4969 61.3382 46.6086 61.3382C44.8321 61.3382 43.1451 60.6328 41.8601 59.3628L34.6126 52.1538L28.1389 58.588L26.222 60.4933V79.3076H18.5528V68.1157L16.6359 70.0209L14.2458 72.3965L8.81976 67.0101L16.6359 59.2416L18.5528 57.3364V43.8069L8.13572 54.1795L2.7097 48.7865L14.7057 36.8637C15.9842 35.593 17.6711 34.8883 19.4543 34.8883C20.3426 34.8883 21.2184 35.0665 22.0619 35.409C24.6313 36.47 26.2227 38.839 26.2227 41.6023V49.714L28.1396 47.8087L34.6134 41.3744L45.7204 52.4203L45.7137 35.7654L40.2238 35.7339C36.5104 35.7339 33.4877 32.7231 33.4877 29.0265V20.9726C33.4877 19.1812 34.1909 17.498 35.4627 16.2339L48.8709 2.90748L54.2903 8.30042L41.1701 21.3406L41.1576 28.0801L46.6476 28.1123C50.3609 28.1123 53.3836 31.1231 53.3836 34.8197V54.6184H53.3829Z" fill="white"/>
<path d="M46.6343 30.9705H40.2369C39.1569 30.9705 38.2811 30.1001 38.2811 29.0266V20.9726C38.2811 20.4519 38.4853 19.9692 38.8564 19.6004L50.2257 8.30045L48.8708 6.95386L37.5015 18.2538C36.7668 18.9783 36.3641 19.9437 36.3641 20.9726V29.0266C36.3641 31.148 38.1025 32.8758 40.2369 32.8758H46.6343C47.7077 32.8758 48.5901 33.7462 48.5901 34.8197V54.6184C48.5901 55.4312 48.1361 56.1045 47.3822 56.4163C46.6284 56.7274 45.829 56.5689 45.2544 55.9971L34.6133 45.4216L28.1395 51.8558L26.2226 53.7611L23.3468 56.6193V41.6031C23.3468 40.0213 22.4328 38.6557 20.9568 38.0525C19.4865 37.4428 17.8701 37.767 16.7386 38.8843L6.77563 48.7873L8.13049 50.1339L18.0942 40.2309C18.6761 39.6591 19.4682 39.5006 20.2286 39.8117C20.9825 40.1228 21.4299 40.7961 21.4299 41.6031V58.5245L18.5542 61.3828L16.6372 63.288L12.8923 67.0101L14.2472 68.3567L16.6372 65.9812L18.5542 64.076L21.4299 61.2177V76.4494H23.3468V59.3118L26.2226 56.4535L28.1395 54.5483L34.6133 48.114L43.8988 57.343C45.0237 58.461 46.6409 58.7853 48.117 58.1748C49.5872 57.5716 50.5071 56.206 50.5071 54.6177V34.819C50.5071 32.6976 48.7687 30.9698 46.6343 30.9698V30.9705Z" fill="white"/>
<path d="M46.6469 26.2063L43.0804 26.1873L43.0871 22.1351L57 8.30042L48.8709 0.214294L34.1079 14.8873C32.4716 16.5136 31.5708 18.673 31.5708 20.9726V29.0265C31.5708 33.7776 35.4568 37.6399 40.2179 37.6399L43.7968 37.6589L43.8034 47.8153L34.6134 38.6813L28.1396 45.1155V41.603C28.1396 38.0584 26.0948 35.0095 22.7907 33.6505C21.7232 33.2058 20.599 32.9838 19.455 32.9838C17.1605 32.9838 14.9945 33.8857 13.3516 35.5185L0 48.7873L8.13572 56.8734L16.6359 48.4127V56.5492L6.11006 67.0108L14.2458 75.0969L16.6359 72.7214V81.2143H28.1396V61.2885L34.6134 54.8542L40.5059 60.7109C42.1481 62.343 44.3148 63.2456 46.6094 63.2456C47.7534 63.2456 48.8782 63.0236 49.9517 62.5789C53.2492 61.2199 55.3006 58.1703 55.3006 54.6198V34.8211C55.3006 30.0701 51.4145 26.2078 46.6476 26.2078L46.6469 26.2063ZM53.3829 54.6184C53.3829 57.3875 51.7849 59.7572 49.2162 60.8175C48.3794 61.1607 47.4969 61.3382 46.6086 61.3382C44.8321 61.3382 43.1451 60.6328 41.8601 59.3628L34.6126 52.1538L28.1389 58.588L26.222 60.4933V79.3076H18.5528V68.1157L16.6359 70.0209L14.2458 72.3965L8.81976 67.0101L16.6359 59.2416L18.5528 57.3364V43.8069L8.13572 54.1795L2.7097 48.7865L14.7057 36.8637C15.9842 35.593 17.6711 34.8883 19.4543 34.8883C20.3426 34.8883 21.2184 35.0665 22.0619 35.409C24.6313 36.47 26.2227 38.839 26.2227 41.6023V49.714L28.1396 47.8087L34.6134 41.3744L45.7204 52.4203L45.7137 35.7654L40.2238 35.7339C36.5104 35.7339 33.4877 32.7231 33.4877 29.0265V20.9726C33.4877 19.1812 34.1909 17.498 35.4627 16.2339L48.8709 2.90748L54.2903 8.30042L41.1701 21.3406L41.1576 28.0801L46.6476 28.1123C50.3609 28.1123 53.3836 31.1231 53.3836 34.8197V54.6184H53.3829Z" fill="url(#paint0_linear_2_1576)"/>
<path d="M46.6343 30.9705H40.2369C39.1569 30.9705 38.2811 30.1001 38.2811 29.0266V20.9726C38.2811 20.4519 38.4853 19.9692 38.8564 19.6004L50.2257 8.30045L48.8708 6.95386L37.5015 18.2538C36.7668 18.9783 36.3641 19.9437 36.3641 20.9726V29.0266C36.3641 31.148 38.1025 32.8758 40.2369 32.8758H46.6343C47.7077 32.8758 48.5901 33.7462 48.5901 34.8197V54.6184C48.5901 55.4312 48.1361 56.1045 47.3822 56.4163C46.6284 56.7274 45.829 56.5689 45.2544 55.9971L34.6133 45.4216L28.1395 51.8558L26.2226 53.7611L23.3468 56.6193V41.6031C23.3468 40.0213 22.4328 38.6557 20.9568 38.0525C19.4865 37.4428 17.8701 37.767 16.7386 38.8843L6.77563 48.7873L8.13049 50.1339L18.0942 40.2309C18.6761 39.6591 19.4682 39.5006 20.2286 39.8117C20.9825 40.1228 21.4299 40.7961 21.4299 41.6031V58.5245L18.5542 61.3828L16.6372 63.288L12.8923 67.0101L14.2472 68.3567L16.6372 65.9812L18.5542 64.076L21.4299 61.2177V76.4494H23.3468V59.3118L26.2226 56.4535L28.1395 54.5483L34.6133 48.114L43.8988 57.343C45.0237 58.461 46.6409 58.7853 48.117 58.1748C49.5872 57.5716 50.5071 56.206 50.5071 54.6177V34.819C50.5071 32.6976 48.7687 30.9698 46.6343 30.9698V30.9705Z" fill="url(#paint1_linear_2_1576)"/>
<path d="M46.6469 26.2063L43.0804 26.1873L43.0871 22.1351L57 8.30042L48.8709 0.214294L34.1079 14.8873C32.4716 16.5136 31.5708 18.673 31.5708 20.9726V29.0265C31.5708 33.7776 35.4568 37.6399 40.2179 37.6399L43.7968 37.6589L43.8034 47.8153L34.6134 38.6813L28.1396 45.1155V41.603C28.1396 38.0584 26.0948 35.0095 22.7907 33.6505C21.7232 33.2058 20.599 32.9838 19.455 32.9838C17.1605 32.9838 14.9945 33.8857 13.3516 35.5185L0 48.7873L8.13572 56.8734L16.6359 48.4127V56.5492L6.11006 67.0108L14.2458 75.0969L16.6359 72.7214V81.2143H28.1396V61.2885L34.6134 54.8542L40.5059 60.7109C42.1481 62.343 44.3148 63.2456 46.6094 63.2456C47.7534 63.2456 48.8782 63.0236 49.9517 62.5789C53.2492 61.2199 55.3006 58.1703 55.3006 54.6198V34.8211C55.3006 30.0701 51.4145 26.2078 46.6476 26.2078L46.6469 26.2063ZM53.3829 54.6184C53.3829 57.3875 51.7849 59.7572 49.2162 60.8175C48.3794 61.1607 47.4969 61.3382 46.6086 61.3382C44.8321 61.3382 43.1451 60.6328 41.8601 59.3628L34.6126 52.1538L28.1389 58.588L26.222 60.4933V79.3076H18.5528V68.1157L16.6359 70.0209L14.2458 72.3965L8.81976 67.0101L16.6359 59.2416L18.5528 57.3364V43.8069L8.13572 54.1795L2.7097 48.7865L14.7057 36.8637C15.9842 35.593 17.6711 34.8883 19.4543 34.8883C20.3426 34.8883 21.2184 35.0665 22.0619 35.409C24.6313 36.47 26.2227 38.839 26.2227 41.6023V49.714L28.1396 47.8087L34.6134 41.3744L45.7204 52.4203L45.7137 35.7654L40.2238 35.7339C36.5104 35.7339 33.4877 32.7231 33.4877 29.0265V20.9726C33.4877 19.1812 34.1909 17.498 35.4627 16.2339L48.8709 2.90748L54.2903 8.30042L41.1701 21.3406L41.1576 28.0801L46.6476 28.1123C50.3609 28.1123 53.3836 31.1231 53.3836 34.8197V54.6184H53.3829Z" fill="url(#paint2_linear_2_1576)"/>
<path d="M46.6343 30.9705H40.2369C39.1569 30.9705 38.2811 30.1001 38.2811 29.0266V20.9726C38.2811 20.4519 38.4853 19.9692 38.8564 19.6004L50.2257 8.30045L48.8708 6.95386L37.5015 18.2538C36.7668 18.9783 36.3641 19.9437 36.3641 20.9726V29.0266C36.3641 31.148 38.1025 32.8758 40.2369 32.8758H46.6343C47.7077 32.8758 48.5901 33.7462 48.5901 34.8197V54.6184C48.5901 55.4312 48.1361 56.1045 47.3822 56.4163C46.6284 56.7274 45.829 56.5689 45.2544 55.9971L34.6133 45.4216L28.1395 51.8558L26.2226 53.7611L23.3468 56.6193V41.6031C23.3468 40.0213 22.4328 38.6557 20.9568 38.0525C19.4865 37.4428 17.8701 37.767 16.7386 38.8843L6.77563 48.7873L8.13049 50.1339L18.0942 40.2309C18.6761 39.6591 19.4682 39.5006 20.2286 39.8117C20.9825 40.1228 21.4299 40.7961 21.4299 41.6031V58.5245L18.5542 61.3828L16.6372 63.288L12.8923 67.0101L14.2472 68.3567L16.6372 65.9812L18.5542 64.076L21.4299 61.2177V76.4494H23.3468V59.3118L26.2226 56.4535L28.1395 54.5483L34.6133 48.114L43.8988 57.343C45.0237 58.461 46.6409 58.7853 48.117 58.1748C49.5872 57.5716 50.5071 56.206 50.5071 54.6177V34.819C50.5071 32.6976 48.7687 30.9698 46.6343 30.9698V30.9705Z" fill="url(#paint3_linear_2_1576)"/>
</g>
<defs>
<linearGradient id="paint0_linear_2_1576" x1="65.0681" y1="16.3128" x2="8.54955" y2="73.1773" gradientUnits="userSpaceOnUse">
<stop stop-color="#96999B"/>
<stop offset="0.76" stop-color="#231F20"/>
</linearGradient>
<linearGradient id="paint1_linear_2_1576" x1="61.6721" y1="19.6771" x2="13.2877" y2="68.359" gradientUnits="userSpaceOnUse">
<stop stop-color="#96999B"/>
<stop offset="0.76" stop-color="#231F20"/>
</linearGradient>
<linearGradient id="paint2_linear_2_1576" x1="65.0681" y1="16.3128" x2="8.54955" y2="73.1773" gradientUnits="userSpaceOnUse">
<stop offset="0.12" stop-color="#F59FAF"/>
<stop offset="0.58" stop-color="#F06587"/>
<stop offset="0.64" stop-color="#EB6385"/>
<stop offset="0.7" stop-color="#DF5F81"/>
<stop offset="0.76" stop-color="#CA597B"/>
<stop offset="0.82" stop-color="#AD5072"/>
<stop offset="0.89" stop-color="#884566"/>
<stop offset="0.95" stop-color="#5A3758"/>
<stop offset="1" stop-color="#2D2A4A"/>
</linearGradient>
<linearGradient id="paint3_linear_2_1576" x1="61.6721" y1="19.6771" x2="13.2877" y2="68.359" gradientUnits="userSpaceOnUse">
<stop offset="0.12" stop-color="#F59FAF"/>
<stop offset="0.58" stop-color="#F06587"/>
<stop offset="0.64" stop-color="#EB6385"/>
<stop offset="0.7" stop-color="#DF5F81"/>
<stop offset="0.76" stop-color="#CA597B"/>
<stop offset="0.82" stop-color="#AD5072"/>
<stop offset="0.89" stop-color="#884566"/>
<stop offset="0.95" stop-color="#5A3758"/>
<stop offset="1" stop-color="#2D2A4A"/>
</linearGradient>
<clipPath id="clip0_2_1576">
<rect width="57" height="81" fill="white"/>
</clipPath>
</defs>
</svg>
